<?xml version="1.0" encoding="utf-8"?>
<!-- Generator: Adobe Illustrator 25.3.1, SVG Export Plug-In . SVG Version: 6.00 Build 0)  -->
<svg version="1.1" id="Layer_1" xmlns="http://www.w3.org/2000/svg" xmlns:xlink="http://www.w3.org/1999/xlink" x="0px" y="0px"
	 viewBox="0 0 540.8 554.2" style="enable-background:new 0 0 540.8 554.2;" xml:space="preserve">
<style type="text/css">
	.st0{fill:#FFFFFF;}
</style>
<g>
	<path class="st0" d="M64.2,533h4.2v17.4H78v3.8H64.2V533z"/>
	<path class="st0" d="M80.1,537.8c0.9-1.7,2.1-2.9,3.6-3.8c1.5-0.9,3.2-1.3,5.1-1.3c1.9,0,3.6,0.4,5.1,1.3c1.5,0.9,2.7,2.1,3.6,3.8
		s1.3,3.6,1.3,5.8c0,2.2-0.5,4.2-1.3,5.8s-2.1,2.9-3.6,3.8c-1.5,0.9-3.2,1.3-5.1,1.3c-1.9,0-3.6-0.4-5.1-1.3
		c-1.5-0.9-2.7-2.1-3.6-3.8s-1.3-3.6-1.3-5.8C78.8,541.4,79.2,539.4,80.1,537.8z M83.9,547.3c0.5,1.1,1.1,1.9,2,2.5s1.8,0.9,3,0.9
		c1.1,0,2.1-0.3,3-0.9s1.5-1.4,2-2.5c0.5-1.1,0.7-2.3,0.7-3.7c0-1.4-0.2-2.7-0.7-3.7c-0.5-1.1-1.1-1.9-2-2.5c-0.9-0.6-1.8-0.9-3-0.9
		c-1.1,0-2.1,0.3-3,0.9c-0.9,0.6-1.5,1.4-2,2.5c-0.5,1.1-0.7,2.3-0.7,3.7C83.2,545,83.5,546.2,83.9,547.3z"/>
	<path class="st0" d="M103.9,533l5.7,15.3L115,533h4.5l-8.3,21.2h-3.6L99.1,533H103.9z"/>
	<path class="st0" d="M134.7,545.3h-8.6v5.3h9.9v3.7h-14.1V533h13.8v3.7h-9.6v5h8.6V545.3z"/>
	<path class="st0" d="M161.2,533l4.4,14.2l4.1-14.2h4.1l-6.6,21.2h-3.2l-4.5-13.8l-4.3,13.8h-3.2L145,533h4.3l4.3,14.2l4.2-14.2
		H161.2z"/>
	<path class="st0" d="M180.4,554.2h-4.2V533h4.2V554.2z"/>
	<path class="st0" d="M182.8,533h17.1v3.7h-6.4v17.5h-4.2v-17.5h-6.4V533z"/>
	<path class="st0" d="M206.5,541.3h9.5V533h4.2v21.2h-4.2v-9.1h-9.5v9.1h-4.2V533h4.2V541.3z"/>
	<path class="st0" d="M241.4,533l8.6,21.2h-4.5l-1.9-4.8h-8.2l-1.8,4.8h-4.2l8.3-21.2H241.4z M242.3,545.8l-2.8-7.4l-2.8,7.4H242.3z
		"/>
	<path class="st0" d="M252.4,533h4.2v17.4h9.6v3.8h-13.8V533z"/>
	<path class="st0" d="M269.2,533h4.2v17.4h9.6v3.8h-13.8V533z"/>
	<path class="st0" d="M299.3,541.7l4.8-8.7h4.5l-7.4,12.9v8.3h-4.2v-8.4l-7.7-12.8h4.9L299.3,541.7z"/>
	<path class="st0" d="M309.4,537.8c0.9-1.7,2.1-2.9,3.6-3.8c1.5-0.9,3.2-1.3,5.1-1.3s3.6,0.4,5.1,1.3c1.5,0.9,2.7,2.1,3.6,3.8
		s1.3,3.6,1.3,5.8c0,2.2-0.5,4.2-1.3,5.8s-2.1,2.9-3.6,3.8c-1.5,0.9-3.2,1.3-5.1,1.3s-3.6-0.4-5.1-1.3c-1.5-0.9-2.7-2.1-3.6-3.8
		s-1.3-3.6-1.3-5.8C308.1,541.4,308.5,539.4,309.4,537.8z M313.2,547.3c0.5,1.1,1.1,1.9,2,2.5s1.8,0.9,3,0.9c1.1,0,2.1-0.3,3-0.9
		s1.5-1.4,2-2.5c0.5-1.1,0.7-2.3,0.7-3.7c0-1.4-0.2-2.7-0.7-3.7c-0.5-1.1-1.1-1.9-2-2.5c-0.9-0.6-1.8-0.9-3-0.9
		c-1.1,0-2.1,0.3-3,0.9c-0.9,0.6-1.5,1.4-2,2.5c-0.5,1.1-0.7,2.3-0.7,3.7C312.5,545,312.7,546.2,313.2,547.3z"/>
	<path class="st0" d="M345.3,533h4.2v12.6c0,1.8-0.4,3.4-1.1,4.7c-0.7,1.3-1.8,2.4-3.1,3.1c-1.3,0.7-3,1.1-4.8,1.1
		c-1.9,0-3.5-0.4-4.8-1.1c-1.3-0.7-2.4-1.8-3.1-3.1c-0.7-1.3-1.1-2.9-1.1-4.7V533h4.2v11.6c0,2,0.4,3.6,1.3,4.6s2,1.5,3.5,1.5
		c1.5,0,2.7-0.5,3.5-1.5c0.8-1,1.3-2.5,1.3-4.6V533z"/>
	<path class="st0" d="M371.3,554.2l-5,0l-5.1-7.6H361h-3.1v7.6h-4.2V533h7.3c1.7,0,3.1,0.3,4.4,0.8c1.3,0.6,2.2,1.4,2.9,2.4
		c0.7,1,1,2.2,1,3.6c0,1.3-0.4,2.5-1,3.6c-0.7,1-1.7,1.8-2.9,2.4L371.3,554.2z M357.9,536.6v6.4h2.6c1.2,0,2.3-0.3,3.1-0.8
		c0.8-0.5,1.2-1.3,1.2-2.4c0-1.1-0.4-1.9-1.2-2.4c-0.8-0.5-1.8-0.8-3.1-0.8H357.9z"/>
	<path class="st0" d="M385.6,541.3h9.5V533h4.2v21.2h-4.2v-9.1h-9.5v9.1h-4.2V533h4.2V541.3z"/>
	<path class="st0" d="M416.6,545.3H408v5.3h9.9v3.7h-14.1V533h13.8v3.7H408v5h8.6V545.3z"/>
	<path class="st0" d="M431.3,533l8.6,21.2h-4.5l-1.9-4.8h-8.2l-1.8,4.8h-4.2l8.3-21.2H431.3z M432.2,545.8l-2.8-7.4l-2.8,7.4H432.2z
		"/>
	<path class="st0" d="M459.9,554.2l-5,0l-5.1-7.6h-0.2h-3.1v7.6h-4.2V533h7.3c1.7,0,3.1,0.3,4.4,0.8c1.3,0.6,2.2,1.4,2.9,2.4
		c0.7,1,1,2.2,1,3.6c0,1.3-0.4,2.5-1,3.6c-0.7,1-1.7,1.8-2.9,2.4L459.9,554.2z M446.5,536.6v6.4h2.6c1.2,0,2.3-0.3,3.1-0.8
		c0.8-0.5,1.2-1.3,1.2-2.4c0-1.1-0.4-1.9-1.2-2.4c-0.8-0.5-1.8-0.8-3.1-0.8H446.5z"/>
	<path class="st0" d="M459.5,533h17.1v3.7h-6.4v17.5h-4.2v-17.5h-6.4V533z"/>
</g>
<g>
	<g>
		<path class="st0" d="M46.2,391.5v10.2H12.1v23.6H0v-29.8c0.1-8.6,0.9-14.2,2.4-16.9c1.9-3.8,4.8-6.4,8.4-8.1
			c3.7-1.6,8.9-2.4,15.5-2.4h19.8v10.2H27.9c-5.6,0.1-9.3,0.6-10.9,1.4c-3.2,1.3-4.9,4.2-5,8.7v3.1H46.2z"/>
		<path class="st0" d="M87.1,367.8c5.7,0,10.7,1,15.1,2.9c5.1,2.3,8.7,6.2,10.7,11.7c1.6,4.3,2.4,9.3,2.4,15.1
			c0,5.8-1,10.9-2.9,15.2c-2.5,5.1-6.2,8.7-11.3,10.7c-3.8,1.5-8.1,2.2-13,2.2c-6.4,0-12-1.2-16.8-3.6c-4-2-7.1-5.1-9.2-9.4
			c-2.1-4.3-3.2-9.5-3.2-15.6c0-10.9,2.7-18.7,8.1-23.3C71.6,369.8,78.3,367.8,87.1,367.8z M87.2,377.4c-5.6,0-9.6,1.8-12,5.5
			c-1.9,2.9-2.9,7.5-2.9,13.8c0,6.7,1.2,11.6,3.6,14.7c2.4,3.1,6.2,4.6,11.4,4.6c5,0,8.7-1.6,11.1-4.7c2.4-3.1,3.6-8,3.6-14.6
			c0-6-1-10.6-2.9-13.7C96.8,379.3,92.8,377.4,87.2,377.4z"/>
		<path class="st0" d="M155.8,367.8c5.7,0,10.7,1,15.1,2.9c5.1,2.3,8.7,6.2,10.7,11.7c1.6,4.3,2.4,9.3,2.4,15.1
			c0,5.8-1,10.9-2.9,15.2c-2.5,5.1-6.2,8.7-11.3,10.7c-3.8,1.5-8.1,2.2-13,2.2c-6.4,0-12-1.2-16.8-3.6c-4-2-7.1-5.1-9.2-9.4
			c-2.1-4.3-3.2-9.5-3.2-15.6c0-10.9,2.7-18.7,8.1-23.3C140.3,369.8,147,367.8,155.8,367.8z M155.9,377.4c-5.6,0-9.6,1.8-12,5.5
			c-1.9,2.9-2.9,7.5-2.9,13.8c0,6.7,1.2,11.6,3.6,14.7c2.4,3.1,6.2,4.6,11.4,4.6c5,0,8.7-1.6,11.1-4.7c2.4-3.1,3.6-8,3.6-14.6
			c0-6-1-10.6-2.9-13.7C165.5,379.3,161.5,377.4,155.9,377.4z"/>
		<path class="st0" d="M199.4,368.1h24.2c6.1,0,10.7,0.6,14.1,1.8c6.1,2.2,10.2,6.3,12.2,12.3c1.5,4.6,2.3,9.4,2.3,14.6
			c0,5.1-0.7,10-2.2,14.6c-1.5,4.7-3.9,8.1-7.4,10.4c-2.2,1.4-4.5,2.3-7.2,2.8c-2.6,0.5-6.6,0.7-11.9,0.7h-24.2V368.1z M211.5,378.3
			V415h12.1c5.3,0,9-1.2,11.1-3.5c1.3-1.5,2.3-3.6,3-6.3c0.8-2.7,1.2-5.5,1.2-8.6c0-3.4-0.5-6.4-1.4-9.3c-0.9-2.8-2.1-4.9-3.6-6.2
			c-2.2-1.9-5.6-2.9-10.3-2.9H211.5z"/>
		<path class="st0" d="M267.5,425.2v-57.1h12.2v57.1H267.5z"/>
		<path class="st0" d="M341,368.1v10.2h-15.9c-4.1,0-7.1,0.3-9,0.9c-1.9,0.6-3.5,1.7-4.7,3.3c-0.9,1.1-1.4,2.3-1.8,3.4
			s-0.6,3.1-0.8,5.8H341v10.2h-32.1c0.5,4.9,1.9,8.3,4.4,10.2c2.5,1.9,6.6,2.9,12.5,2.9H341v10.2h-15.9c-4.3,0-8-0.3-11.3-0.8
			c-5.1-0.8-9.2-3.1-12.2-6.8c-4.3-5.2-6.5-12.4-6.5-21.3c0-9.9,3.1-17.7,9.2-23.2c2.1-1.9,4.4-3.2,6.7-3.9s5.6-1.1,9.5-1.1H341z"/>
		<path class="st0" d="M403.7,368.1v57.1h-12.1v-23.6h-22.1v23.6h-12.2v-57.1h12.2v23.3h22.1v-23.3H403.7z"/>
		<path class="st0" d="M416.7,425.2l23.6-57.1h14l23.6,57.1h-14.2l-5.6-13.2h-21.7l-5.6,13.2H416.7z M447.3,381.9l-8.1,20h16.3
			L447.3,381.9z"/>
		<path class="st0" d="M502.6,383.4v41.9h-11.7v-57.1h15.6l22.7,42.6v-42.6h11.6v57.1h-14.9L502.6,383.4z"/>
	</g>
	<g>
		<rect x="222.3" y="285" class="st0" width="96.1" height="39.4"/>
		<path class="st0" d="M346.9,0h-15.1v52.7h43.4v49.8H386v23.1H280.6v-23.1h28.1V75.9h-80V52.7h80V0h-92.5v75.9h-63V52.7h39.9V0
			h-1.6c0,0-3.7,23.1-48.9,33.7v123v11v123c46.2,11.5,51.3,33.7,51.3,33.7h5.3V285h-44.7v-23.1h44.7V209h-44.3v-31.3h23.1v8.1h62.4
			v-25.1h-87V87h110.1v39.2h-23.1v-16h-63.9v27.4h87V209h-41.3v52.9h96.1v-15.2h-45.9v-23.1h45.9V209h-39.1v-71.5H386V209h-44.4
			v14.6H386v23.1h-44.4v15.2H386V285h-44.4v39.4h7.7c0,0,3.7-23.1,48.9-33.7v-123v-11v-123C352,22.2,346.9,0,346.9,0z"/>
		<rect x="331.8" y="75.9" class="st0" width="20.3" height="26.6"/>
	</g>
	<g>
		<rect x="447.6" y="483.1" class="st0" width="67.5" height="6.4"/>
	</g>
	<g>
		<rect x="25.6" y="483.1" class="st0" width="67.5" height="6.4"/>
	</g>
	<g>
		<path class="st0" d="M171,521.6c-1,0.4-1.7,0.4-2.3,0.1c-0.9-0.4-1.5-1.3-1.8-2.8c-0.3-1.9-0.3-3.6,0-5.1c0-0.1,0.1-0.3,0.1-0.5
			c0-0.1,0-0.5,0.1-1c0.1-0.4,0.1-0.7,0.1-1c0-0.5,0-0.9,0.1-1.1c0-0.1,0-0.2,0.1-0.2c-0.5-0.6-1.2-1-1.9-1.3h-0.1
			c-0.6,0.1-1.2,0.2-1.5,0.2c-0.9,0-1.5,0.2-2,0.7c-0.6,0.6-1.7,1.1-3.1,1.4c-1.5,0.4-2.8,0.3-3.8-0.2c-1-0.5-1.6-1.3-1.8-2.2
			c-0.1-0.7,0.1-1.7,0.6-2.7c0.6-0.9,1.4-1.5,2.3-1.8c1.1-0.3,2.2-0.4,3.4-0.4c0.9,0,1.6,0,2.1-0.2c1.1-0.5,2.3-0.6,3.5-0.5
			c0.3,0,0.7,0,1.1,0c0.2-0.1,0.2-0.2,0.3-0.2c0.4-0.4,0.8-0.8,1.1-1.2c0-0.2,0.1-0.3,0.1-0.5c-0.1-0.3-0.1-0.6,0-0.7
			c0-0.4,0-0.7,0-0.9c-0.1-0.3-0.1-0.5-0.1-0.7c-0.3-0.2-0.5-0.5-0.7-0.7c-0.3-0.3-0.6-0.6-1-0.7c-0.4,0-0.6,0.1-0.8,0.2
			c-0.7,0.2-1.8,0.1-3.2-0.2c-1.5-0.5-2.5-1-2.8-1.7c-0.1-0.7-0.6-1.3-1.5-1.9c-0.6-0.4-0.9-1.2-0.8-2.6c0-2.3-0.2-4.2-0.4-5.7
			c-0.3-0.9-0.3-1.8-0.1-2.7c0.1-0.6,0.1-1.2,0.1-1.9c-0.1-1.3,0.2-2.3,0.7-3.2c0.2-0.7,0.6-1.2,1.1-1.6c0.4-0.2,0.8-0.4,1.3-0.5
			c0.6,0.1,1.1,0.2,1.4,0.4c0.5,0.4,0.7,0.9,0.9,1.6c0.3,0.8,0.4,2.1,0.2,3.9c-0.3,2.4-0.4,4.3-0.2,5.6c0.3,1.5,0.7,2.7,1.2,3.4
			c0.4,0.6,0.8,0.9,1.5,1.1c1,0.2,2.1,0.2,3.3-0.1c1.5-0.5,3-0.5,4.5-0.1c1,0.1,1.8,0.1,2.5-0.1c0.7-0.2,1.5-0.4,2.5-0.3
			c0.7,0.1,1.3-0.2,1.8-0.7c0.7-0.5,1.2-1.3,1.7-2.5c0.2-1.4,0.1-2.7-0.2-3.8c-0.3-1-0.5-1.8-0.5-2.6c0-0.6-0.1-1.1-0.3-1.6
			c-0.6-0.8-0.9-1.3-0.9-1.6c-0.1-0.6-0.4-1-0.7-1.2c-0.6-0.2-1-0.5-1.3-0.7c-0.2-0.2-1.1-0.5-2.8-0.7c-1.1-0.1-2-0.1-2.8-0.1
			c-1-0.2-1.9-0.1-2.9,0.2c-1.7,0.6-3.2,0.9-4.6,0.7c-1.3-0.4-1.9-1-1.9-1.9c0-1.1,0.3-1.8,1-2.3c0.8-0.6,1.8-1,3.1-1.1
			c0.2,0,0.4,0,0.6,0c1-0.7,1.7-1.4,2-1.9c0.1-0.2,0.2-0.3,0.2-0.4c-0.2-0.4-0.3-0.9-0.3-1.7c0-0.7-0.1-1.3-0.2-1.7
			c-0.1-0.4-0.2-0.6-0.2-0.8c-0.4-0.2-0.7-0.5-1.1-0.7c-0.2,0-0.5,0-0.7,0.1c-0.5,0-1,0.2-1.4,0.4c-0.6,0.1-1.1,0.1-1.5,0.1
			c-0.5-0.2-1.1-0.3-1.7-0.2c-0.8,0.2-1.5,0.2-2.2,0.2c-0.9-0.2-1.7-0.6-2.3-1.4c-0.5-0.9-0.7-1.7-0.7-2.5c0.1-0.9,0.6-1.7,1.6-2.5
			c1-0.6,2.3-0.8,3.9-0.5c2,0.7,3.5,0.8,4.4,0.5c0,0,0.1,0,0.1,0c0.2-0.2,0.4-0.4,0.6-0.5c0-0.4,0-0.7,0.1-0.9
			c0.2-1.4,0.6-2.5,1.4-3.3c0.8-0.6,1.5-1,2.2-1c1.1,0,1.8,0.1,2.1,0.4c0.5,0.5,0.9,1.2,1.1,2.1c0,0.6,0,1.3,0,2.1
			c0.2,0.1,0.5,0.3,0.7,0.5c0.4,0.3,0.9,0.6,1.6,1c0.6,0.1,1.3,0,1.9-0.2c1-0.3,1.8-0.4,2.6-0.3c0.7,0.2,1.5,0.3,2.4,0.1
			c0.8-0.1,1.4,0.1,1.9,0.6c0.5,0.7,0.6,1.5,0.3,2.3c-0.4,0.8-1,1.4-1.9,1.9c-1,0.4-2,0.5-3.1,0.5c-1.2,0-2,0.1-2.7,0.3
			c-1,0.3-1.9,0.3-2.8,0.1c-0.1,0-0.2-0.1-0.5-0.1c-0.6,0.3-1,0.6-1.3,1.1c-0.1,0.4-0.2,0.8-0.2,1.3c-0.2,0.5-0.3,0.8-0.2,1.1
			c0,0.4-0.1,0.6-0.1,0.8c-0.1,0.4-0.1,0.6-0.1,0.8c0.1,0.2,0.3,0.5,0.5,0.7c0.5,0.7,1.1,1.2,1.7,1.5c0.1,0,0.1,0,0.1,0.1
			c0.9,0,1.7,0.1,2.3,0.5c0.5,0.3,1.2,0.4,1.9,0.4c1,0,2,0.5,2.9,1.3c1.1,0.7,1.6,1.3,1.7,1.8c0,0.5,0.3,1,0.7,1.3
			c0.6,0.6,0.8,1.7,0.8,3.4c0.1,0.9,0.3,1.7,0.6,2.3c0.4,0.7,0.5,1.7,0.5,3.1c0,1.6-0.1,3.1-0.1,4.5c0,1.9-0.5,3.3-1.4,4.1
			c-0.6,1-1.7,1.8-3.2,2.4c-1,0.6-2.4,0.8-4.1,0.6c-0.7,0-1.2,0.1-1.7,0.1c-0.5,0.1-0.8,0.2-1,0.2c-0.7,0.3-1.3,0.6-1.6,0.9
			c-0.1,0-0.1,0.1-0.1,0.1c0,0.2,0,0.5-0.1,0.7c0,0.2-0.1,0.4-0.1,0.6c0.1,0.2,0.1,0.5,0,0.8c0,0.2,0,0.5,0,0.8
			c0.1,0.2,0.1,0.5,0.1,0.8c0.2,0.2,0.6,0.5,0.9,0.7c0.3,0.2,0.7,0.5,1.1,0.8h0.1c0.4,0.1,0.9,0.1,1.6-0.1c0.8-0.3,1.4-0.4,2-0.4
			c0.8,0,1.7,0,2.6,0c0.6,0,1.2,0.1,1.9,0.3c0.7,0.3,1.4,0.7,2,1.2c0.5,0.8,0.6,1.7,0.3,2.8c-0.4,1-1.1,1.6-2.2,1.9
			c-1.1,0.4-2.3,0.3-3.7-0.2c-1.4-0.4-2.9-0.4-4.6-0.2c-0.1,0-0.1,0-0.2,0c-0.7,0.5-1.3,1-1.9,1.6c0,0.3-0.1,0.6-0.1,1
			c0,0.2,0,0.6,0.1,0.9c0,0.3,0,0.5,0,0.7c0,0.2,0,0.4,0,0.6c0.4,2.1,0.4,4.1,0.1,5.8C172.4,520.4,171.8,521.3,171,521.6z
			 M165.4,485.7c-1.1-0.4-1.7-0.8-1.8-1.3c0-0.6,0.4-1.2,1.1-1.7c1.2-0.8,2.1-1.3,2.8-1.3c0.6-0.1,1.1-0.3,1.6-0.5
			c0.8-0.1,1.4-0.2,1.9-0.1c0.7,0.1,1.2,0.2,1.5,0.2c1.8,0.2,3,0.5,3.7,0.8c0.6,0.3,1,0.8,1,1.4c-0.1,0.8-0.7,1.5-1.7,2.1
			c-0.7,0.6-1.7,1-3.1,1c-0.7,0.1-1.2,0.1-1.5,0.2c-0.4,0-0.8,0-1.3,0c-0.2-0.1-0.5-0.1-0.7-0.1
			C167.8,486.4,166.6,486.2,165.4,485.7z M206.1,476c0.7-0.2,2-0.3,3.8-0.1c2.3,0.2,4.1,0.6,5.4,1.3c1,0.5,1.8,1.2,2.5,2
			c0.6,1.4,1,2.8,1.1,4.2c-0.1,1.1-0.2,2-0.4,2.8c-0.2,0.8-0.5,1.3-0.8,1.4c-0.6,0.3-1,0.8-1.2,1.4c-0.4,0.7-0.9,1.1-1.7,1.2
			c-0.8,0-1.6,0.4-2.3,1.1c-0.5,0.4-1.1,0.6-1.9,0.5c-0.8,0.4-1.3,0.8-1.7,1.1c-0.1,0.1-0.2,0.1-0.3,0.3c0,0.2,0,0.5,0,1
			c-0.1,0.1-0.1,0.2-0.1,0.2c0.2,0.2,0.5,0.5,0.8,0.9c0.4,0.3,0.7,0.6,1.1,1c0.6,0,1.3,0.1,2,0.2c1,0.1,1.9,0.1,2.7,0.1
			c0.9,0,1.7,0.2,2.5,0.8c0.9,0.6,1.3,1.4,1.3,2.5c0,0.8-0.5,1.6-1.6,2.2c-1.2,0.5-2.7,0.4-4.3-0.1c-0.8-0.3-1.7-0.5-2.5-0.5
			c-0.1,0.1-0.3,0.2-0.5,0.4c-0.4,0.3-0.8,0.6-1.2,1c0.1,0.2,0.2,0.5,0.2,0.8c-0.1,0.5-0.1,0.8,0,1.2c0,0.1,0,0.3,0,0.5
			c0.1,0.2,0.2,0.4,0.4,0.6c0.5,0.5,1.2,1.1,2,1.8c0.4-0.1,0.9-0.1,1.5-0.2c1-0.2,1.8-0.4,2.5-0.3c0.8,0.1,1.7,0.1,2.6,0.1
			c0.6,0,1.2,0.1,1.9,0.5c0.7,0.2,1.3,0.7,2,1.3c0.4,0.7,0.5,1.7,0.1,2.8c-0.5,1-1.2,1.6-2.3,1.8c-1.2,0.2-2.4,0.1-3.7-0.5
			c-1.7-0.6-3.7-0.8-5.8-0.7c-0.1,0-0.2,0-0.2,0c0,0.1-0.1,0.1-0.1,0.2c-0.3,0.2-0.6,0.5-0.7,0.7c0.3,1.9,0.3,3.7,0,5.3
			c-0.4,1.6-0.9,2.6-1.7,2.9c-1,0.4-1.7,0.4-2.3,0.1c-0.8-0.4-1.4-1.3-1.8-2.8c-0.3-1.9-0.3-3.6,0-5.1c0.1-0.2,0.1-0.5,0-0.7
			c-0.3-0.4-0.6-0.7-1-0.9c-0.5-0.3-0.8-0.6-1-0.8c-0.6,0.1-1.2,0.2-1.7,0.5c-1.2,0.5-2.3,0.7-3.3,0.7c-1.1,0-1.9,0.2-2.5,0.7
			c-0.8,0.7-2.1,1.2-4,1.6c-1.6,0.2-2.8,0.1-3.7-0.4c-1-0.6-1.5-1.3-1.7-2.2c-0.1-0.8,0.2-1.7,0.8-2.6c0.7-0.9,1.5-1.5,2.5-1.7
			c0.1-0.1,0.2-0.1,0.4-0.1c0.1-0.5,0.2-1,0.5-1.5c0.4-0.6,0.6-1.2,0.8-1.9c0.2-0.6,0.7-1,1.4-1c0.7,0.1,1.1,0.3,1.3,0.8
			c0.3,0.7,0.8,1.4,1.7,2.2c0.5,0.3,0.7,0.6,0.7,1c1.1-0.4,2.3-0.4,3.7-0.2c1.1,0.1,2,0,2.9-0.2c0.3-0.1,0.6-0.2,1-0.1
			c0.6-0.5,1-0.8,1.4-1.2c0,0,0-0.1,0.1-0.1c0-0.2,0-0.4,0-0.5c0-0.6,0-1.1,0.1-1.5c-0.6-0.8-1.2-1.5-2-2c-0.1,0-0.1-0.1-0.2-0.1
			c-0.2,0-0.4-0.1-0.5-0.1c-1,0-1.9,0.1-2.5,0.3c-0.7,0.4-1.4,0.6-2,0.7c-0.6,0-1.1,0-1.6,0c-1.1,0.5-2.2,0.6-3.3,0.4
			c-1.1-0.4-1.7-1.2-1.7-2.2c-0.1-0.9,0.1-1.7,0.7-2.3c0.7-0.7,1.5-1.3,2.6-1.6c1-0.3,1.8-0.4,2.5-0.3c0.7,0.1,1.4,0.2,2.1,0.1
			c0.6-0.2,1.3-0.2,1.9,0c0.5,0,1,0,1.5-0.1c0.6-0.5,1.1-0.8,1.4-1.2c0.1-0.1,0.3-0.3,0.5-0.5c0-0.1,0-0.2,0.1-0.2
			c0-0.5,0-0.9-0.1-1.3c-0.1-0.2-0.1-0.5-0.1-0.7c-0.3-0.3-0.6-0.6-0.9-0.8c-0.8-0.1-1.7-0.2-2.4-0.2c-1.3,0-2.5,0.2-3.4,0.7
			c-0.7,0.2-1.1,0.6-1.4,1.4c-0.3,0.5-0.7,0.8-1.2,1c-0.8,0.2-1.6,0.1-2.2-0.2c-0.7-0.3-1.2-1.1-1.6-2.3c-0.3-1.1-0.4-2-0.4-2.7
			c0.1-1.3,0.1-2.2-0.1-2.6c-0.1-0.5-0.2-0.8-0.1-1.2c0.1-0.2,0.1-0.6-0.1-0.9c-0.2-0.3-0.2-0.6-0.1-1c0.1-0.5,0.1-0.9-0.1-1.3
			c-0.2-1-0.2-2-0.2-3.1c0-1,0.4-1.9,1.1-2.5c0.7-0.9,1.6-1.4,2.5-1.6c0.8-0.2,1.5-0.1,2,0.2c0.6,0.5,1.3,0.7,2,0.5
			c2-0.6,4-0.7,5.8-0.2C203.9,476.3,205.2,476.3,206.1,476z M206.4,473.1c-0.7-0.4-1.7-0.4-2.9-0.2c-1.3,0.3-2.6,0.3-3.7,0
			c-1.4-0.1-2.6,0-3.6,0.4c-1.1,0.5-2.1,0.7-2.9,0.9c-0.8,0-1.6,0-2.3,0c-1.1,0.5-2.2,0.6-3.3,0.4c-1.1-0.4-1.7-1.2-1.7-2.2
			c-0.1-0.9,0.1-1.7,0.7-2.3c0.6-0.7,1.5-1.3,2.6-1.6c1.4-0.4,2.6-0.6,3.5-0.4c0.6,0.1,1.3,0.2,2.1,0.2c0.7-0.5,1.4-1.1,1.9-1.5
			c0-0.5,0-0.8,0.1-1.1c0-0.2,0.1-1,0.3-2.3c-0.3-0.2-0.6-0.5-0.9-0.6c-0.2-0.1-0.3-0.2-0.5-0.2c-1.4,0.2-3.1,0-4.9-0.6
			c-1.3-0.2-2-0.6-2-1.1c0-0.9,0.8-1.8,2.5-2.5c0.8-0.4,2.3-0.7,4.5-0.9c0.2,0,0.4,0,0.6,0c0.3-0.3,0.6-0.6,0.7-0.7
			c-0.2-1.1,0-2.1,0.5-3.1c0.2-1.1,0.8-1.8,1.7-2.3c1-0.5,2-0.4,3.2,0.4c0.8,0.6,1.2,1.5,1.2,2.7c-0.1,0.7-0.2,1.4-0.5,2
			c0.1,0,0.1,0,0.2,0.1c0.3,0.4,0.6,0.8,1,1.1c0.7,0,1.4,0,2.1-0.1c1.9-0.4,3.3-0.4,4-0.1c0.9,0.4,1.5,0.5,1.9,0.5
			c0.7-0.1,1.4,0.1,2.2,0.7c0.5,0.5,1.1,1.3,1.6,2.4c0.2,1.5,0.1,3.4-0.4,5.7c0.5,0.5,1,1,1.5,1.3c0.2,0,0.3,0.1,0.4,0.3
			c0.5,0,0.9,0,1.3,0c0.9,0,1.7,0.2,2.5,0.8c0.9,0.6,1.3,1.4,1.3,2.5c0,0.8-0.5,1.6-1.6,2.2c-1.3,0.5-2.7,0.4-4.3-0.1
			c-2-0.6-4-0.9-6.1-0.7C209.3,473.5,207.8,473.5,206.4,473.1z M207,480.5c-1.7,0.5-3.3,0.4-4.7-0.1c-1.2-0.4-2.3-0.3-3.2,0.2
			c-0.8,0.2-1.8,0.4-2.9,0.3c-0.8,0-1.4,0.5-1.6,1.5c-0.1,0.5-0.1,0.8,0,1c0.1,0.2,0.1,0.4,0.1,0.6c0,0.2,0,0.4,0.1,0.6
			c0.1,0.1,0.1,0.3,0.1,0.5c0,0.9,0.3,1.4,0.9,1.6c1.1,0.5,2.5,0.4,4-0.2c1.7-0.3,3-0.2,4.1,0.3c0.9,0.4,1.7,0.4,2.3-0.1
			c1-0.5,2.1-0.5,3.2-0.1c0.7-0.1,1.4-0.3,2.1-0.7c0.9-0.6,1.4-1,1.4-1.4c0-0.1,0.1-0.2,0.1-0.3c0.1-0.1,0.1-0.2,0.1-0.4
			c0-0.2,0-0.3,0-0.4c-0.1-0.8-0.6-1.5-1.6-2.2C210.1,480.4,208.6,480.1,207,480.5z M210.4,466.3c0.3-1.1,0.4-2,0.2-2.8
			c0-0.4-0.2-0.8-0.9-1.1c-0.7-0.3-1.4-0.4-2-0.3c-1,0-1.7,0.1-2.4,0.1c-0.5,0.2-0.9,0.5-1.3,0.8c-0.4,0.3-0.8,0.5-1.1,0.8
			c0,0.6,0.1,1.3,0.1,2l0.1,0.1c0.5,0.8,1.2,1.4,2,1.9c1-0.1,2.2-0.1,3.6-0.1c0.1,0,0.2,0,0.4,0
			C209.6,467.1,210.1,466.7,210.4,466.3z"/>
		<path class="st0" d="M249.9,463.9c0.8-1,1.7-1.1,2.5-0.5c0.8,0.6,1,1.4,0.7,2.5c-1.1,3-2.3,5.3-3.7,6.7c-0.8,0.8-1.5,1.7-2.2,2.8
			c-0.8,1.3-2,2.5-3.3,3.7c-2.1,1.9-3.6,3-4.5,3.5c-0.5,0.2-1,0.7-1.6,1.3c-0.6,0.7-1.4,1.3-2.4,1.8c-1.3,0.7-2.5,0.8-3.6,0.3
			c-1.2-0.6-1.9-1.2-2.1-1.9c-0.2-1,0-2.1,0.7-3.5c0.4-0.7,1.2-1.3,2.4-1.6c0.6-0.5,1.4-1,2.3-1.6c0.7-0.6,1.9-1.3,3.4-2
			c2.5-1.3,4.2-2.7,5.2-4.3c1.2-2,2.2-3.2,3-3.7C247.6,466.5,248.7,465.4,249.9,463.9z M272.7,509c-0.4-0.1-0.7-0.1-0.9-0.1
			c-2.1,0.6-3.6,0.9-4.2,0.8c-0.7,0-1.3-0.3-1.7-1c-0.1-0.9,0.1-1.8,0.7-2.8c0.2-0.6,0.7-1.1,1.3-1.5c0.1-0.5,0.2-1.1,0.3-1.6
			c-0.2-0.4-0.3-0.6-0.4-0.8c-0.1-0.2-0.2-0.4-0.2-0.5l-0.1-0.1c-0.8-0.6-1.9-1.1-3.1-1.6c-0.5-0.2-0.8-0.3-1.2-0.4
			c-0.7,0-1.2,0-1.6-0.1c-1-0.1-2.1,0-3.3,0.3c-1.2,0.5-2.2,0.7-3.1,0.7c-0.5,0-0.8,0-1.2,0c-0.3,0.4-0.6,0.8-1,1.2
			c-0.4,0.3-0.6,0.6-0.8,0.8c-0.1,0.4-0.1,0.7-0.1,0.9c-0.1,0.6-0.1,0.9-0.2,1.1c-0.1,0.4-0.1,0.8,0.1,1.3c0.2,0.8,0.3,1.7,0.4,2.8
			c-0.1,1.9,0.1,3.3,0.5,4.3c0.5,0.8,1.3,1.3,2.5,1.7c1.1,0.3,1.8,0.3,2.3,0.1c0.5-0.2,1.3-0.4,2.5-0.3c0.5,0,0.9-0.1,1.3-0.3
			c1.1-0.7,2.2-1.2,3.2-1.2c0.6-0.1,1.9-0.6,3.7-1.3c1.2-0.5,2.2-0.4,2.8,0.2c0.4,0.4,0.4,0.8,0,1.4c-0.4,0.5-0.6,1.1-0.8,1.7
			c-0.2,0.4-0.6,0.8-1.1,1.1c-1.7,1.3-3.3,2.3-4.9,2.8c-0.6,0.2-1.3,0.6-2.1,1.1c-1,0.5-2,0.7-2.9,0.7c-1.2-0.2-1.9-0.2-2.4,0
			c-1,0.2-2.1,0.4-3.4,0.3c-1.2,0-2,0-2.3-0.2c-0.5-0.3-1.1-0.5-1.8-0.5c-0.7-0.2-1.6-0.8-2.6-1.9c-0.6-0.7-0.9-1.3-0.8-1.7
			c0.2-0.7,0.1-1.4-0.1-2c-0.1-0.5-0.1-1,0.1-1.5c0.2-1.3,0.5-2,0.7-2.3c0.2-0.3,0.3-0.6,0.2-1c0-0.4,0.2-1.3,0.5-2.7
			c0.1-0.5,0.1-1.1-0.1-1.8c-0.4-1.4-0.5-3-0.4-4.8c0-0.9,0-1.6,0-1.9c-0.1-0.4-0.1-0.8-0.1-1.3c0.4-2.4,0.5-4.6,0.5-6.4
			c0-1.8,0-3-0.2-3.6c-0.1-0.4-0.2-0.7-0.2-1c0.1-0.6,0-1.1-0.3-1.6c-0.4-0.8-0.6-1.9-0.5-3.5c0.1-1.5,0.6-2.6,1.3-3.4
			c0.4-0.4,1.1-0.6,2-0.4c0.7-0.4,1.7-0.7,3.1-0.8c0.8-0.3,1.9-0.4,3.2-0.3c1.2,0,2.2-0.1,3.1-0.5c0.8-0.5,1.9-0.7,3.1-0.7
			c0.6,0.1,1.1,0,1.6-0.3c0.7-0.1,1.7-0.1,2.8,0c0.5-0.1,1.2-0.1,2-0.2c0.4-0.1,0.7,0,1.2,0.3c0.7,0.1,1.6,0,2.5-0.3
			c1.1,0,2.3,0.2,3.3,0.6c1.4,1,2.4,1.9,3.1,2.9c0.4,0.8,0.3,2-0.3,3.5c-0.5,1.2-0.6,2.3-0.5,3.4c0.2,0.7,0.2,1.7-0.1,3.1
			c-0.1,0.8-0.1,1.4-0.1,2c0.1,0.6,0.1,1.4-0.1,2.3c-0.2,0.5-0.2,1-0.2,1.7c0,1.8-0.5,3-1.6,3.7c-1.3,1.1-2.8,1.7-4.6,1.7
			c-0.2,0.2-0.4,0.5-0.5,0.7c0.5,0.4,0.8,0.8,1.2,1.1h0.1c0.2,0.1,0.5,0.2,0.8,0.2c0.4,0,0.7-0.1,1.1-0.3c0.9-0.6,2.2-0.8,3.7-0.9
			c1.2,0,1.9,0.2,2.2,0.5c0.3,0.7,0.2,1.4-0.3,2.2c-0.7,1.1-1.2,1.8-1.7,2.2c0,0.1,0,0.2,0.1,0.3c0,0.3,0,0.6,0.1,1
			c0.7,0.6,1.8,1.2,3.1,1.9c1.4,0.5,2.7,1.4,4.1,2.5c1.5,1,3.4,1.5,5.5,1.3c1.7-0.3,3.1-0.1,4.5,0.6c1.5,0.7,2.5,1.5,2.9,2.3
			c0.4,1.3,0,2.5-0.9,3.8c-0.5,0.6-1.3,0.9-2.2,1c-1.3,0.1-2.3,0-3.1-0.3c-1.1-0.6-2.2-0.9-3.5-1.1c-2.2-0.4-4.7-1.4-7.4-3.3
			c-3.5-2.6-6.2-4.6-8-6C273.1,509.1,272.9,509,272.7,509z M267.4,489.6c-1.2,0.2-2.3,0.3-3.3,0.1c-0.6-0.1-1.3-0.1-1.9,0
			c-0.6,0.2-1.1,0.4-1.6,0.3c-0.5-0.1-0.9,0-1.2,0.2c-0.5,0.2-0.9,0.3-1.4,0.2c-0.4,0-0.9,0.1-1.5,0.1c-1.1,0.4-2,0.5-2.8,0.4
			c-0.2,0.4-0.5,0.7-0.7,1c-0.1,0.1-0.2,0.2-0.3,0.4c0,0.9,0,1.7,0,2.3c0.4,0.2,0.8,0.4,1.1,0.6c0.8-0.1,1.9-0.2,3.1-0.1
			c1.2,0.1,2.1,0,2.8-0.2c1.2-0.2,2.4-0.3,3.3-0.1c0.9,0.1,1.7,0.1,2.3,0.1c0.4-0.1,1.4,0,3.1,0.4c1.1,0.1,1.8,0.1,2.3-0.1
			c1.1-0.6,1.7-1.5,1.9-2.8c0.5-2.5,0.6-4.3,0.4-5.2c-0.1-1.3,0-2.3,0.1-3c0.3-1.5-0.1-2.9-1.2-3.9c-0.4-0.4-0.8-0.6-1.4-0.4
			c-0.5-0.1-1.1-0.2-1.7-0.2c-0.9-0.1-1.7,0-2.5,0.3c-1.3,0.5-2.9,0.7-4.7,0.7c-1.2,0-2.4,0.1-3.7,0.1c-1.2,0.1-2,0.2-2.3,0.5
			c-1,0.6-1.9,0.9-2.7,1.1c0,0.5-0.1,1.2-0.2,1.9c-0.1,0.4-0.1,0.7-0.1,1.1c0.3,0.1,0.5,0.2,0.7,0.4c0.1,0.1,0.2,0.2,0.4,0.4
			c0.4-0.1,0.8-0.1,1.3-0.1c0.6,0.1,1.1,0,1.5-0.2c0.4-0.2,0.8-0.2,1.3,0c0.6,0.1,1.1,0.1,1.6-0.1c0.4-0.2,1-0.3,1.6-0.2
			c0.6,0,1.2,0,1.9-0.2c0.4,0,0.6,0,0.8,0c0.5,0.1,0.8,0,1.2-0.2c0.5-0.1,1-0.1,1.5,0c1.3-0.1,2.1,0.2,2.6,1.1
			c0.4,0.6,0.4,1.3,0.2,1.9C269.2,488.7,268.5,489.3,267.4,489.6z M254.7,455c0.9-1.2,2.4-2.2,4.6-2.8c1.4-0.5,2.4-0.7,2.9-0.6
			c0.8,0.1,1.6,0.1,2.3-0.1c1-0.2,2.2-0.1,3.5,0.4c1.8,0.2,3.1,0.7,4.1,1.4c1.3,1,2.5,2.2,3.4,3.7c0.8,1.7,0.7,2.9-0.2,3.6
			c-0.8,0.6-1.6,0.7-2.3,0.4c-0.8-0.4-1.7-1-2.6-1.9c-0.8-0.7-2.6-1.1-5.5-1.1c-1.7,0-3.1,0.2-4.3,0.9c-1.2,0.4-2.3,1.2-3.2,2.5
			c-1,1-1.8,1.2-2.6,0.6c-0.9-0.7-1.3-1.6-1.3-2.8C253.4,457.5,254,456.1,254.7,455z M257.2,470.7c-0.1-0.2-0.3-0.5-0.5-0.7
			c-0.4-0.1-0.4-0.7-0.1-1.8c0.2-0.7,0.6-1.2,1.3-1.6c0.8-0.4,1.7-0.5,2.4-0.4c1.4-0.1,2.6-0.3,3.7-0.6c1-0.1,2.1,0,3.4,0.4
			c0.7,0.1,1.2,0.1,1.6,0.1c0.5,0.1,1,0.2,1.5,0.6c0.8,0.6,1.1,1.2,1.1,1.7c0.1,0.6-0.4,1.1-1.3,1.6c-1,0.8-1.8,1.2-2.5,1.1
			c-2.8,0.6-4.6,0.8-5.5,0.7c-0.6-0.1-1.9-0.2-3.7-0.2C257.6,471.1,257.2,470.9,257.2,470.7z M275.5,465.3c-0.4-1.1-0.2-2,0.6-2.6
			c0.8-0.7,1.6-0.6,2.5,0.2c0.7,0.8,1.4,1.3,2.1,1.7c2.1,1.8,3.6,3.2,4.3,4c1.5,1.7,2.7,2.7,3.7,3.1c1.6,0.7,2.9,1.4,4,2.2
			c1.2,0.8,2.3,1.4,3.5,1.9c1.8,0.6,2.9,1.6,3.4,2.9c0.5,1.2,0.5,2.4-0.1,3.7c-0.1,0.4-0.8,0.8-2.1,1.3c-0.9,0.4-2,0.3-3.4-0.1
			c-1.3-0.4-2.4-0.9-3.3-1.7c-0.6-0.6-1.4-1.1-2.2-1.4c-1.2-0.5-2.4-1.7-3.7-3.6c-0.5-0.8-1.2-1.4-1.9-1.7c-0.7-0.3-2-1.8-4-4.6
			C277.3,468.8,276.1,467.1,275.5,465.3z M286,489.8c0.8-0.4,1.9-0.5,3.1-0.1c0.7,0.2,1.3,0.8,1.7,1.7c0.4,1,0.3,2-0.2,3.1
			c-0.3,0.5-0.7,1.1-1.3,1.6c-0.4,0.3-0.8,0.6-1.3,1.1c-0.2,0.2-0.5,0.5-0.8,0.7c-0.4,0.2-0.7,0.4-1,0.7c-0.9,1.3-2,2-3.2,2.2
			c-1.2,0.2-1.9,0-2.1-0.7c-0.2-0.5-0.1-1.1,0.3-1.7c0.7-1,1-1.7,1-2.1c0-0.2,0.2-0.5,0.4-0.8c0.2-0.4,0.4-0.8,0.5-1.2
			c0.2-0.2,0.3-0.5,0.4-0.7c0.3-0.5,0.6-1.1,0.8-1.7C284.7,490.8,285.3,490.1,286,489.8z"/>
		<path class="st0" d="M332.9,463c-1.6-0.1-3.5,0-5.6,0.5c-1.2,0.4-2.3,0.6-3.2,0.6c-0.7,0.1-1.3,0.2-2.1,0.4
			c-1.7,0.7-2.9,1.4-3.4,2.1c-0.7,0.6-1.2,1.4-1.5,2.3c0,0.1,0,0.2,0,0.5c-0.2,1.2-0.3,2.9-0.1,5.1c0.1,1.8,0,3.1-0.4,4
			c-0.3,1-0.4,1.8-0.4,2.5c0.1,1.2-0.3,2.2-1.2,3c-1,0.9-1.8,1.3-2.4,1.3c-0.6-0.1-1.1-0.5-1.5-1.1c-0.6-0.8-0.9-1.8-0.9-2.9
			c0-1.8,0-3.5,0-5.2c0.2-1.6,0.8-3.2,1.6-4.7c0.7-1.3,1.1-3.1,1-5.5c0-1.9,0.1-3.3,0.5-4.3c0.4-0.8,0.8-1.5,1.3-2.2
			c0.4-0.4,0.8-0.6,1.3-0.6c0.8,0.1,1.3,0.3,1.6,0.8c0,0.1,0,0.2,0.1,0.2c1-0.6,2-0.8,2.9-0.7c0.6,0,1.1,0,1.6-0.2
			c0.7-0.2,1.3-0.3,1.7-0.1c0.6,0,1.3-0.1,2.1-0.3c0.6-0.2,1.7-0.3,3.1-0.1c0.4,0.1,0.8,0.1,1.3,0.1c1.6-0.5,2.7-0.8,3.4-1.2
			c0.4-0.3,0.7-0.5,1.1-0.7c-0.1-0.5-0.1-1-0.1-1.7c0.2-1,0.5-1.8,1-2.4c0.5-0.5,1.3-0.9,2.3-1.1c1-0.2,1.8-0.2,2.5,0.1
			c0.8,0.2,1.4,0.6,1.8,1.1c0.6,0.7,0.8,1.3,0.7,1.8c0,0.5,0.1,0.8,0.3,1.2c0.1,0.2,0.1,0.5,0,0.8c0.5,0.2,1.1,0.4,1.7,0.6
			c0.7,0.2,1.7,0.5,3.1,0.9c-0.4-0.1-0.5-0.1-0.3-0.1c0.1,0,0.1,0,0.3,0.1h0.1c1.6,0.1,3.4,0.1,5.2,0c2.4-0.1,4,0,4.8,0.4
			c0.6,0.4,1.4,0.4,2.5,0.1c1.3-0.2,2.6-0.3,3.8-0.1c1.5,0.4,2.8,1.2,3.9,2.5c1.4,1.3,2.1,2.4,2.1,3.3c0.1,0.7,0.5,1.8,1,3.5
			c0.4,1.4,0.6,3,0.7,4.7c-0.1,2.3-0.2,3.7-0.4,4.2c-0.4,0.6-0.5,1.2-0.6,1.9c-0.1,0.8-0.6,1.3-1.4,1.7c-0.6,0.5-1.3,0.6-2.1,0.4
			c-0.9-0.5-1.4-1.1-1.5-1.9c-0.5-1.5-0.7-2.9-0.7-4.1c0.4-1.1,0.5-1.8,0.5-2.3c-0.1-0.7-0.1-1.4-0.1-2.2c0-1.1-0.3-2-0.8-3
			c-0.6-1-1.2-1.7-1.9-2.2c-0.8-0.5-1.7-0.9-2.6-1.1c-1,0-1.6-0.2-1.9-0.5c-1.3-0.6-2.5-0.7-3.6-0.4c-1,0.1-1.8,0.1-2.3-0.1
			c-0.7-0.1-1.3-0.2-1.6-0.2c-1.5,0.2-2.9,0.2-4.1,0c-2.4-0.3-4.8-0.2-7,0.1C337.4,463.1,335.1,463.2,332.9,463z M329.3,503.9
			c0.7-0.1,1.3,0,1.8,0.3c0.6,0.2,0.9,0.5,1.1,1c0.1,0.5,0.1,0.9-0.1,1.3c-0.2,0.5-0.6,0.8-1.2,1.2c-1,0.9-2.3,1.7-3.8,2.3
			c-0.8,0.4-1.7,1-2.6,1.7c-1.4,1.1-2.7,2-3.9,2.5c-1.7,0.6-3.4,1.1-5.1,1.3c-1.1,0.2-2,0.1-2.9-0.2c-0.7-0.3-1.1-0.6-1.3-1.1
			c-0.2-0.7-0.2-1.4,0-2.3c0.2-0.7,0.8-1.3,1.6-1.9c1.4-0.8,3-1.4,4.8-1.7c0.7-0.1,1.4-0.3,2.1-0.6c1-0.5,2.1-0.8,3.4-1.1
			c0.7-0.1,1.4-0.4,2.3-0.8C327,504.5,328.3,503.9,329.3,503.9z M327.3,493.7c0.6,0.1,1.2,0.2,1.7,0.4c0.5,0.2,0.8,0.5,1,1
			c0.2,0.4,0.1,0.8-0.1,1.2c-0.2,0.4-0.6,0.8-1.1,1.1c-0.7,0.6-1.6,1.1-2.6,1.6c-0.5,0.3-1.1,0.7-1.7,1.2c-0.8,0.7-1.6,1.3-2.5,1.7
			c-1.6,0.5-3.2,0.9-4.8,1.1c-1,0.1-1.9,0-2.7-0.3c-0.7-0.2-1.2-0.6-1.2-1.1c-0.2-0.6-0.2-1.4,0.1-2.2c0.2-0.7,0.8-1.3,1.6-1.8
			c1.3-0.8,2.8-1.4,4.5-1.6c0.4,0,0.7,0,1.2-0.1c0.6-0.2,1.2-0.3,1.8-0.4c0.5,0,0.8-0.1,1.2-0.2
			C325.1,494.3,326.4,493.7,327.3,493.7z M349.2,468.3c1,0.1,1.9,0.1,2.7,0.1c0.9,0,1.7,0.2,2.5,0.8c0.9,0.6,1.3,1.4,1.3,2.5
			c0.1,0.8-0.5,1.6-1.6,2.2c-1.3,0.5-2.7,0.4-4.3-0.1c-0.7-0.2-1.4-0.3-1.9-0.3c-1,0.2-1.7,0.5-2,0.7c-0.2,0.4-0.5,0.8-0.8,1.3
			c-0.6,0.6-1.2,1.2-1.8,1.7c0,0.4-0.1,0.8-0.1,1.1c-0.1,0.2-0.1,0.5-0.1,0.8c0,0,0.1,0,0.1,0.1c0.4,0.5,0.8,1.1,1.3,1.7
			c0.1,0.3,0.4,0.8,1.1,1.5c0.7,0.9,1.4,1.6,2.3,2.1c0.4,0.6,1.1,1.9,1.9,4.1c0.1,0.4,0.2,0.8,0.4,1.1c0.2,0.2,0.3,0.5,0.4,0.8
			c0.2,0.1,0.3,0.3,0.4,0.5c0,0.2,0.3,0.6,0.8,0.9c0.5,0.4,0.8,0.9,1,1.5c0.1,0.2,0.5,0.6,1.1,0.9c0.4,0.1,0.6,0.4,0.8,0.9
			c0.1,0.4,0.6,0.8,1.3,1.3c0.8,0.6,1.7,1.3,2.6,1.9c0.7,0.5,1.6,1,2.5,1.6c0.8,0.5,1.6,1,2.3,1.3c0.6,0.4,1.3,0.7,1.9,0.9
			c1.3,0.1,2.4,0.4,3.1,0.8c0.4,0.4,0.9,0.5,1.6,0.6c1.9,0,3.4,0.5,4.3,1.4c0.8,0.4,1.2,0.8,1.3,1.3c0.1,0.4,0.3,0.8,0.7,1.1
			c0.3,0.5,0.3,1.2-0.1,2.2c-0.6,1.4-1.6,2.3-3.1,2.5c-1.1,0.1-2.3-0.2-3.5-0.8c-0.7-0.4-1.4-0.5-2.1-0.4c-1.7-0.5-3.5-1.6-5.5-3.5
			c-0.7-0.7-1.5-1.3-2.5-1.7c-1.1-0.4-2.2-1.5-3.4-3.4c-0.4-0.6-1-0.9-1.6-1.1c-0.3-0.2-0.6-0.3-0.8-0.4c-0.5,0.1-1,0.2-1.3,0.4
			c0,1.3,0,2.5-0.2,3.7c-0.2,1.7-0.6,2.9-1.2,3.7c-0.7,1.2-1.3,2.5-1.7,3.9c-0.1,1.1-0.3,1.8-0.7,2.3c-0.4,0.6-0.8,1.4-1.1,2.3
			c-0.1,0.7-0.6,1.4-1.6,1.9c-1.1,0.7-2.3,1.2-3.5,1.2c-1.3,0.2-2.4,0.1-3.5-0.2c-0.4-0.5-1.2-0.8-2.3-1c-0.7,0-1.3-0.2-1.8-0.9
			c-0.4-1-1.3-1.8-2.7-2.6c-1.3-0.8-2-1.5-2.1-2.2c-0.2-1.3-0.1-2.3,0.4-2.9c0.9-0.6,1.6-0.9,2.1-0.8c1.4,0.7,2.4,1.3,2.8,1.7
			c0.9,0.7,1.9,1.3,3,1.6c1.3,0.3,2.3,0.4,3,0.2c0.2-0.3,0.6-0.5,1.1-0.6c0.4,0,1.1-0.8,2.2-2.3c1-1.6,1.5-2.6,1.6-3.3
			c0-0.8,0.1-1.4,0.4-1.8c0.2-0.4,0.2-0.8,0-1.5c0.1-0.6,0.3-1.4,0.4-2.4c-0.1-0.7-0.1-1.7-0.1-3c0-1.4-0.1-2.3-0.3-2.8
			c-0.4-0.9-0.7-1.9-0.9-3c-0.2-0.8-0.5-1.4-0.7-1.8c-0.2-0.4-0.4-0.7-0.5-1.2c0-0.6-0.3-1.4-0.8-2.5c-0.5-0.6-1.1-1.2-1.7-1.7
			c-1.1-0.6-1.8-1.1-2.2-1.5c-0.3-0.5-0.6-0.7-1-0.7c-0.2-0.1-0.4-0.1-0.5-0.1c-0.6,0-1.2,0-1.7,0.1c-0.5,0-0.9,0.1-1.4,0.1
			c-0.5,0.4-1,0.7-1.3,0.9c-0.3,0.1-1.1,0.5-2.3,1.3c-0.5,0.5-1.4,1-2.6,1.5c-0.8,0.2-1.7,0.6-2.8,1.3c-1.1,0.7-2.2,1-3.3,0.8
			c-1.1-0.2-2-0.8-2.5-1.6c-0.2-1-0.1-1.9,0.4-2.6c0.5-1,1.3-1.6,2.3-1.8c1.6-0.5,2.9-1.1,4-1.6c0.9-0.6,2-1.1,3.2-1.3
			c1.1-0.4,2.3-0.8,3.4-1.5c1.5-1.1,2.5-2.2,3.1-3.1c0.4-0.4,0.7-0.8,1.1-1.1c-0.1-0.1-0.3-0.2-0.5-0.2c-0.3-0.1-0.6-0.2-0.7-0.3
			c-0.4,0-0.7,0-0.9-0.1c-1.1,0-2.1,0.1-2.8,0.5c-0.8,0.5-1.6,0.8-2.3,0.8c-0.7,0.1-1.3,0.2-1.8,0.2c-1.1,0.5-2.2,0.6-3.3,0.4
			c-1.1-0.4-1.7-1.2-1.7-2.2c-0.1-0.9,0.1-1.7,0.7-2.3c0.6-0.7,1.5-1.3,2.6-1.6c1.1-0.4,2-0.6,2.8-0.4c0.8,0.1,1.6,0.1,2.4,0
			c0.6-0.2,1.3-0.3,2.1-0.1c0.8,0.1,1.5-0.1,2.1-0.4c0.5-0.3,1.5-0.4,2.8-0.2c1-0.1,2-0.2,3.3-0.4
			C344.6,468,346.7,468.1,349.2,468.3z M339.2,488c0.3,0.6,0.3,1.2-0.1,2c-0.4,0.8-1.1,1.5-2,2.3c-0.4,0.4-0.8,0.6-1.3,0.7
			c-0.2,0.1-0.5,0.2-0.7,0.4c-0.8,0.7-1.5,1.1-2.3,1.1c-0.7,0-1.3-0.2-1.7-0.7c-0.4-0.4-0.4-0.9-0.1-1.6c0.5-1,1-1.7,1.5-2.3
			c0.7-0.6,1.4-1.1,2-1.6c1-0.7,1.9-1,2.7-1.1C338.2,487.1,338.8,487.4,339.2,488z M343.4,496.1c0.4,0.6,0.4,1.2,0,2
			c-0.4,0.7-1,1.5-1.9,2.3c-0.9,0.9-1.8,1.5-2.8,1.9c-0.6,0.2-1,0.5-1.4,1c-0.8,0.7-1.6,1.1-2.3,1.1c-0.8,0-1.3-0.2-1.7-0.6
			c-0.3-0.4-0.4-0.9-0.1-1.6c0.4-1,0.8-1.7,1.3-2.2c1-1.1,2-1.9,3-2.7c1.3-1,2.6-1.7,3.8-1.9C342.2,495.2,342.9,495.5,343.4,496.1z
			 M361.6,480.6c0.8-0.2,1.8,0,2.9,0.7c0.6,0.4,1,1.1,1.1,1.9c0,1-0.3,2-0.9,2.9c-0.5,0.6-1.1,1.1-1.9,1.5c-0.6,0.2-1.1,0.5-1.6,1
			c-0.3,0.3-0.7,0.5-1.1,0.5c-0.4,0.1-0.8,0.3-1.3,0.7c-1.3,1-2.7,1.4-4.2,1.3c-1.3-0.1-2-0.6-2-1.3c0-0.6,0.2-1.2,0.8-1.8
			c1.1-0.8,1.7-1.5,1.7-1.9c0.2-0.3,0.5-0.5,0.8-0.7c0.5-0.4,0.8-0.7,1.1-1.2c0.3-0.2,0.5-0.4,0.7-0.6c0.5-0.3,1.1-0.8,1.7-1.6
			C360.2,481.3,360.9,480.8,361.6,480.6z"/>
	</g>
	<rect x="302.5" y="160.6" class="st0" width="60.4" height="25.2"/>
</g>
</svg>
