<svg id="Layer_1" data-name="Layer 1" xmlns="http://www.w3.org/2000/svg" viewBox="0 0 518.68 159.89"><defs><style>.cls-1{fill:#f7901f;}.cls-2{fill:#121111;}</style></defs><rect class="cls-1" x="39.31" y="140.46" width="47.37" height="19.42"/><path class="cls-1" d="M100.7,0H93.26V26h21.39V50.52h5.29V61.93H68V50.52H81.86V37.4H42.42V26H81.86V0H36.3V37.4h-31V26H24.89V0h-.78S22.31,11.41,0,16.61V143.3c22.79,5.67,25.28,16.59,25.28,16.59H27.9V140.46h-22v-11.4h22V103H6.09V87.56H17.5v4H48.23V79.22H5.36V42.89H59.63V62.2H48.23V54.29H16.76V67.81H59.63V103H39.31v26.09H86.68v-7.5H64V110.15H86.68V103H67.39V67.74h52.55V103H98.08v7.18h21.86v11.41H98.08v7.5h21.86v11.4H98.08v19.43h3.79s1.8-11.41,24.11-16.62V16.59C103.19,10.92,100.7,0,100.7,0Z"/><rect class="cls-1" x="93.26" y="37.4" width="9.98" height="13.12"/><path class="cls-2" d="M205.71,132.36h2.75V143.8h6.33v2.48h-9.08Z"/><path class="cls-2" d="M216.18,135.48a6.18,6.18,0,0,1,2.38-2.5,7.05,7.05,0,0,1,6.75,0,6.22,6.22,0,0,1,2.4,2.5,8.77,8.77,0,0,1,0,7.66,6.22,6.22,0,0,1-2.4,2.5,7,7,0,0,1-6.75,0,6.18,6.18,0,0,1-2.38-2.5,8.77,8.77,0,0,1,0-7.66Zm2.5,6.27A3.75,3.75,0,0,0,220,143.4a3.6,3.6,0,0,0,3.89,0,3.77,3.77,0,0,0,1.32-1.65,6.75,6.75,0,0,0,0-4.9,3.76,3.76,0,0,0-1.32-1.63,3.55,3.55,0,0,0-3.89,0,3.74,3.74,0,0,0-1.31,1.63,6.62,6.62,0,0,0,0,4.9Z"/><path class="cls-2" d="M231.77,132.36l3.72,10.06,3.58-10.06h3l-5.43,13.92h-2.33l-5.63-13.92Z"/><path class="cls-2" d="M252,140.4h-5.64v3.46h6.52v2.42h-9.28V132.36h9.06v2.4h-6.3V138H252Z"/><path class="cls-2" d="M269.42,132.36l2.89,9.35,2.66-9.35h2.66l-4.33,13.92h-2.13l-2.93-9.09-2.83,9.09H263.3l-4.52-13.92h2.85l2.85,9.35,2.74-9.35Z"/><path class="cls-2" d="M282,146.28h-2.75V132.36H282Z"/><path class="cls-2" d="M283.59,132.36H294.8v2.45h-4.21v11.47h-2.78V134.81h-4.22Z"/><path class="cls-2" d="M299.2,137.83h6.27v-5.47h2.77v13.92h-2.77v-6H299.2v6h-2.76V132.36h2.76Z"/><path class="cls-2" d="M322.06,132.36l5.62,13.92h-2.92l-1.22-3.18h-5.42L317,146.28h-2.76l5.45-13.92Zm.59,8.38-1.86-4.88L319,140.74Z"/><path class="cls-2" d="M329.28,132.36H332V143.8h6.33v2.48h-9.09Z"/><path class="cls-2" d="M340.31,132.36h2.76V143.8h6.32v2.48h-9.08Z"/><path class="cls-2" d="M360.12,138.07l3.15-5.71h3l-4.85,8.44v5.48h-2.76v-5.5l-5-8.42h3.25Z"/><path class="cls-2" d="M366.75,135.48a6.13,6.13,0,0,1,2.39-2.5,7.05,7.05,0,0,1,6.75,0,6.13,6.13,0,0,1,2.39,2.5,8.69,8.69,0,0,1,0,7.66,6.13,6.13,0,0,1-2.39,2.5,7,7,0,0,1-6.75,0,6.13,6.13,0,0,1-2.39-2.5,8.87,8.87,0,0,1,0-7.66Zm2.51,6.27a3.73,3.73,0,0,0,1.3,1.65,3.43,3.43,0,0,0,1.95.57,3.39,3.39,0,0,0,1.95-.57,3.75,3.75,0,0,0,1.31-1.65,6.62,6.62,0,0,0,0-4.9,3.74,3.74,0,0,0-1.31-1.63,3.4,3.4,0,0,0-1.95-.58,3.44,3.44,0,0,0-1.95.58,3.73,3.73,0,0,0-1.3,1.63,6.62,6.62,0,0,0,0,4.9Z"/><path class="cls-2" d="M390.32,132.36h2.76v8.29a6.57,6.57,0,0,1-.7,3.1,4.89,4.89,0,0,1-2,2,7.32,7.32,0,0,1-6.33,0,4.76,4.76,0,0,1-2-2,6.45,6.45,0,0,1-.71-3.1v-8.29H384V140a4.65,4.65,0,0,0,.83,3,3.22,3.22,0,0,0,4.63,0,4.65,4.65,0,0,0,.83-3Z"/><path class="cls-2" d="M407.41,146.28l-3.29,0-3.38-5h-2.12v5h-2.76V132.36h4.8a7.15,7.15,0,0,1,2.88.55,4.3,4.3,0,0,1,1.9,1.57,4.19,4.19,0,0,1,.67,2.33,4,4,0,0,1-.69,2.33,4.36,4.36,0,0,1-1.92,1.55Zm-8.79-11.58v4.22h1.72a3.73,3.73,0,0,0,2-.52,2,2,0,0,0,0-3.19,3.72,3.72,0,0,0-2-.51Z"/><path class="cls-2" d="M416.77,137.83H423v-5.47h2.78v13.92H423v-6h-6.27v6H414V132.36h2.76Z"/><path class="cls-2" d="M437.14,140.4H431.5v3.46H438v2.42h-9.28V132.36h9.07v2.4H431.5V138h5.64Z"/><path class="cls-2" d="M446.82,132.36l5.62,13.92h-2.92l-1.22-3.18h-5.42l-1.17,3.18H439l5.45-13.92Zm.59,8.38-1.86-4.88-1.81,4.88Z"/><path class="cls-2" d="M465.6,146.28l-3.29,0-3.38-5H456.8v5H454V132.36h4.81a7.1,7.1,0,0,1,2.87.55,4.24,4.24,0,0,1,1.9,1.57,4.11,4.11,0,0,1,.67,2.33,4,4,0,0,1-.68,2.33,4.39,4.39,0,0,1-1.93,1.55Zm-8.8-11.58v4.22h1.73a3.72,3.72,0,0,0,2-.52,1.77,1.77,0,0,0,.81-1.59,1.74,1.74,0,0,0-.8-1.6,3.7,3.7,0,0,0-2-.51Z"/><path class="cls-2" d="M465.31,132.36h11.22v2.45h-4.22v11.47h-2.77V134.81h-4.23Z"/><path class="cls-2" d="M193.87,39.43v6.69H171.48V61.58h-7.93V42q.06-8.43,1.58-11.08a11.08,11.08,0,0,1,5.54-5.29c2.41-1.05,5.82-1.57,10.21-1.57h13v6.69h-12c-3.71.08-6.1.38-7.15.9q-3.13,1.31-3.26,5.74v2Z"/><path class="cls-2" d="M220.75,23.84a24,24,0,0,1,9.9,1.92,13.21,13.21,0,0,1,7,7.7,28.29,28.29,0,0,1,1.57,9.9,24,24,0,0,1-1.9,10,13.78,13.78,0,0,1-7.43,7,23.32,23.32,0,0,1-8.55,1.46,24.16,24.16,0,0,1-11-2.36,13.16,13.16,0,0,1-6-6.19A22.89,22.89,0,0,1,202.25,43q0-10.76,5.34-15.3Q212.09,23.91,220.75,23.84Zm.05,6.3q-5.51,0-7.87,3.6Q211,36.56,211,42.8q0,6.59,2.36,9.67c1.58,2,4.07,3,7.49,3s5.72-1,7.28-3.09,2.33-5.25,2.33-9.56q0-5.91-1.91-9Q226.38,30.21,220.8,30.14Z"/><path class="cls-2" d="M265.86,23.84a24,24,0,0,1,9.9,1.92,13.21,13.21,0,0,1,7,7.7,28.29,28.29,0,0,1,1.57,9.9,23.81,23.81,0,0,1-1.91,10,13.76,13.76,0,0,1-7.42,7,23.35,23.35,0,0,1-8.55,1.46,24.14,24.14,0,0,1-11-2.36,13.16,13.16,0,0,1-6-6.19A22.89,22.89,0,0,1,247.35,43q0-10.76,5.35-15.3Q257.2,23.91,265.86,23.84Zm.05,6.3q-5.51,0-7.87,3.6c-1.28,1.88-1.91,4.9-1.91,9.06q0,6.59,2.36,9.67t7.48,3q4.95,0,7.29-3.09t2.33-9.56q0-5.91-1.91-9C272.21,31.42,269.63,30.18,265.91,30.14Z"/><path class="cls-2" d="M294.49,24.07H310.4a28.15,28.15,0,0,1,9.23,1.18,12.64,12.64,0,0,1,8,8,29.87,29.87,0,0,1,1.52,9.61,30.86,30.86,0,0,1-1.46,9.56,12.13,12.13,0,0,1-4.84,6.81,13.28,13.28,0,0,1-4.69,1.83,46.45,46.45,0,0,1-7.8.47H294.49Zm8,6.69V54.89h7.93c3.49,0,5.91-.76,7.26-2.3a11.1,11.1,0,0,0,2-4.11,20.14,20.14,0,0,0,.76-5.62,19.5,19.5,0,0,0-.9-6.08,9.35,9.35,0,0,0-2.37-4.1q-2.13-1.92-6.75-1.92Z"/><path class="cls-2" d="M339.26,61.58V24.07h8V61.58Z"/><path class="cls-2" d="M387.46,24.07v6.69H377.05a22,22,0,0,0-5.9.57,5.91,5.91,0,0,0-3.09,2.19,6.72,6.72,0,0,0-1.16,2.25,24.59,24.59,0,0,0-.53,3.82h21.09v6.7H366.37q.45,4.83,2.87,6.71c1.61,1.27,4.35,1.89,8.21,1.89h10v6.69H377.05a49.11,49.11,0,0,1-7.42-.5,12.78,12.78,0,0,1-8-4.45q-4.27-5.16-4.28-14,0-9.78,6-15.24a12.06,12.06,0,0,1,4.42-2.59,21.87,21.87,0,0,1,6.27-.73Z"/><path class="cls-2" d="M428.69,24.07V61.58h-7.93V46.06H406.25V61.58h-8V24.07h8v15.3h14.51V24.07Z"/><path class="cls-2" d="M437.18,61.58l15.53-37.51h9.16L477.4,61.58h-9.34l-3.65-8.66H450.17l-3.65,8.66Zm20.14-28.45L452,46.23h10.69Z"/><path class="cls-2" d="M493.6,34.08v27.5h-7.66V24.07h10.24l14.91,28V24.07h7.59V61.58H508.9Z"/><rect class="cls-2" x="457.5" y="99.62" width="44.36" height="4.23"/><rect class="cls-2" x="180.38" y="99.62" width="44.36" height="4.23"/><path class="cls-2" d="M275.85,124.89a1.88,1.88,0,0,1-1.52,0c-.57-.23-1-.86-1.19-1.87a9.41,9.41,0,0,1,0-3.35,1,1,0,0,0,.05-.3,5.52,5.52,0,0,1,.05-.63,1.47,1.47,0,0,0,.05-.65,4,4,0,0,1,0-.74.2.2,0,0,1,.05-.14,4.51,4.51,0,0,0-1.28-.89h-.05l-1,.15a2,2,0,0,0-1.34.44,4.48,4.48,0,0,1-2,.94,4,4,0,0,1-2.51-.1,2.16,2.16,0,0,1-1.18-1.43,3.17,3.17,0,0,1,.39-1.77,3.09,3.09,0,0,1,1.53-1.18,7.34,7.34,0,0,1,2.26-.25,3.26,3.26,0,0,0,1.38-.14,4.6,4.6,0,0,1,2.31-.3h.74a1,1,0,0,0,.2-.15c.26-.29.51-.56.74-.78a1,1,0,0,0,0-.3,1.33,1.33,0,0,1,0-.49,1.89,1.89,0,0,0,0-.59,1.77,1.77,0,0,1-.09-.49l-.44-.44a3.05,3.05,0,0,0-.65-.5.87.87,0,0,0-.54.15,4.34,4.34,0,0,1-2.07-.15c-1-.29-1.62-.66-1.82-1.08a2,2,0,0,0-1-1.28c-.39-.23-.57-.8-.54-1.73a34.28,34.28,0,0,0-.25-3.73,3.66,3.66,0,0,1-.05-1.77,4.58,4.58,0,0,0,.05-1.23,3.87,3.87,0,0,1,.45-2.12,2,2,0,0,1,.73-1,1.73,1.73,0,0,1,.84-.3,2.25,2.25,0,0,1,.94.25,1.85,1.85,0,0,1,.58,1,6.13,6.13,0,0,1,.11,2.56,17.21,17.21,0,0,0-.16,3.69,6.55,6.55,0,0,0,.79,2.26,1.73,1.73,0,0,0,1,.74,4.12,4.12,0,0,0,2.16-.1,5.68,5.68,0,0,1,2.95-.09,4.42,4.42,0,0,0,1.68,0,4.12,4.12,0,0,1,1.63-.2,1.38,1.38,0,0,0,1.17-.44,3.42,3.42,0,0,0,1.09-1.68,5.71,5.71,0,0,0-.15-2.51,5.67,5.67,0,0,1-.3-1.72,2.88,2.88,0,0,0-.19-1.08,3.22,3.22,0,0,1-.59-1,1.17,1.17,0,0,0-.49-.78,2.1,2.1,0,0,1-.84-.5,4.22,4.22,0,0,0-1.82-.44L276,94.53a3.2,3.2,0,0,0-1.87.14,5.88,5.88,0,0,1-3,.44c-.83-.23-1.23-.64-1.23-1.23a1.79,1.79,0,0,1,.63-1.52,3.3,3.3,0,0,1,2-.69h.39a6.12,6.12,0,0,0,1.33-1.23,1.53,1.53,0,0,1,.15-.25,2.27,2.27,0,0,1-.2-1.08,3.9,3.9,0,0,0-.14-1.13q-.1-.35-.15-.54c-.23-.17-.46-.31-.69-.45a2,2,0,0,0-.44.05,3,3,0,0,0-.94.25,3.5,3.5,0,0,1-1,0,2.43,2.43,0,0,0-1.09-.15,5.51,5.51,0,0,1-1.42.1,2.53,2.53,0,0,1-1.53-.89,3,3,0,0,1-.44-1.67,2.62,2.62,0,0,1,1-1.67,3.22,3.22,0,0,1,2.56-.3,4.8,4.8,0,0,0,2.91.3H273a4,4,0,0,1,.4-.35,2.94,2.94,0,0,1,0-.59,3.6,3.6,0,0,1,.94-2.17,2.69,2.69,0,0,1,1.43-.68,2.31,2.31,0,0,1,1.38.29,2.36,2.36,0,0,1,.74,1.38,10.58,10.58,0,0,1,0,1.38,2.07,2.07,0,0,1,.44.34,8.25,8.25,0,0,0,1,.64,2.8,2.8,0,0,0,1.28-.1,3.17,3.17,0,0,1,1.68-.19,3.12,3.12,0,0,0,1.57.09,1.4,1.4,0,0,1,1.23.4,1.62,1.62,0,0,1,.2,1.53,2.67,2.67,0,0,1-1.28,1.27,5.36,5.36,0,0,1-2,.3,6.74,6.74,0,0,0-1.77.19,3.83,3.83,0,0,1-1.87,0,.74.74,0,0,0-.3,0,2.42,2.42,0,0,0-.88.69,4.38,4.38,0,0,0-.15.84,1.4,1.4,0,0,0-.15.69,5.43,5.43,0,0,1-.1.54,2.29,2.29,0,0,0-.09.55,2.07,2.07,0,0,0,.34.44,2.88,2.88,0,0,0,1.13,1,.14.14,0,0,1,.1,0,2.82,2.82,0,0,1,1.52.3,2.28,2.28,0,0,0,1.28.24A3.17,3.17,0,0,1,283,93c.69.46,1.05.85,1.09,1.18a1.21,1.21,0,0,0,.49.89,3.34,3.34,0,0,1,.54,2.21,4.89,4.89,0,0,0,.39,1.52,4.2,4.2,0,0,1,.3,2c0,1-.07,2-.1,3a3.53,3.53,0,0,1-.93,2.66,4.49,4.49,0,0,1-2.12,1.58,4.34,4.34,0,0,1-2.71.39l-1.08.1a2.36,2.36,0,0,1-.64.15,2.93,2.93,0,0,0-1,.59c-.07,0-.1.06-.1.1a2,2,0,0,1-.05.44,1.74,1.74,0,0,0-.05.39,1.39,1.39,0,0,1,0,.5,1.63,1.63,0,0,0,0,.54,2.47,2.47,0,0,1,.05.54l.59.49.74.49h0a1.67,1.67,0,0,0,1,0,3,3,0,0,1,1.28-.25,16.44,16.44,0,0,0,1.72,0,4.14,4.14,0,0,1,1.23.19,6.06,6.06,0,0,1,1.33.79,2.16,2.16,0,0,1,.2,1.82,2.07,2.07,0,0,1-1.43,1.23,3.69,3.69,0,0,1-2.41-.14,8.47,8.47,0,0,0-3.05-.15h-.1a7.41,7.41,0,0,0-1.28,1c0,.2-.07.41-.1.64a4.84,4.84,0,0,0,.05.59,1,1,0,0,1,0,.44.9.9,0,0,0,0,.4A9.86,9.86,0,0,1,277,123C276.75,124.07,276.37,124.69,275.85,124.89Zm-3.69-23.63c-.76-.26-1.15-.55-1.19-.88a1.38,1.38,0,0,1,.74-1.13,3.68,3.68,0,0,1,1.83-.84,7.6,7.6,0,0,0,1.08-.35,4.84,4.84,0,0,1,1.23-.09l1,.15a7.47,7.47,0,0,1,2.42.54,1,1,0,0,1,.63.93,2,2,0,0,1-1.13,1.38,3,3,0,0,1-2,.69c-.43,0-.76.06-1,.1a3.9,3.9,0,0,1-.84,0,1.8,1.8,0,0,0-.44-.05A5.39,5.39,0,0,1,272.16,101.26Zm26.77-6.34a6.85,6.85,0,0,1,2.51-.06,9.74,9.74,0,0,1,3.54.85A5.35,5.35,0,0,1,306.61,97a10.11,10.11,0,0,1,.74,2.76,10.22,10.22,0,0,1-.25,1.87c-.17.55-.35.85-.54.89a1.5,1.5,0,0,0-.79.93,1.27,1.27,0,0,1-1.13.79,2.21,2.21,0,0,0-1.48.69,1.82,1.82,0,0,1-1.28.34,3.47,3.47,0,0,0-1.08.74.27.27,0,0,0-.2.2v.63a.47.47,0,0,0-.05.16,6.31,6.31,0,0,1,.54.58c.23.2.46.41.69.65a6.62,6.62,0,0,1,1.33.14,9.93,9.93,0,0,0,1.78,0,2.37,2.37,0,0,1,1.62.54,1.92,1.92,0,0,1,.89,1.68c0,.55-.32,1-1,1.42a4.43,4.43,0,0,1-2.85,0,5.06,5.06,0,0,0-1.63-.29,2.86,2.86,0,0,0-.3.24,5.6,5.6,0,0,0-.78.65,1.47,1.47,0,0,1,.1.53,2.6,2.6,0,0,0,0,.79v.3a1.41,1.41,0,0,0,.29.39,12.16,12.16,0,0,0,1.29,1.18l1-.1a5.12,5.12,0,0,1,1.62-.19,10.88,10.88,0,0,0,1.72,0,2.83,2.83,0,0,1,1.23.29,4.3,4.3,0,0,1,1.29.84,2.17,2.17,0,0,1,.09,1.82,1.91,1.91,0,0,1-1.48,1.18,4.44,4.44,0,0,1-2.41-.3,9.49,9.49,0,0,0-3.78-.44h-.16l-.09.1a6,6,0,0,0-.49.44,10.74,10.74,0,0,1,0,3.49c-.23,1.06-.61,1.68-1.14,1.88a1.88,1.88,0,0,1-1.52,0c-.56-.23-.95-.86-1.18-1.87a9.41,9.41,0,0,1,0-3.35,1.08,1.08,0,0,0,0-.44,2.19,2.19,0,0,0-.64-.59,3.75,3.75,0,0,1-.64-.5,2.63,2.63,0,0,0-1.14.35,5.14,5.14,0,0,1-2.16.44,2.89,2.89,0,0,0-1.67.44,5.58,5.58,0,0,1-2.61,1,3.92,3.92,0,0,1-2.46-.25,2.38,2.38,0,0,1-1.14-1.47,2.83,2.83,0,0,1,2.12-2.86.78.78,0,0,1,.3,0,2.35,2.35,0,0,1,.34-1,6.72,6.72,0,0,0,.55-1.23.87.87,0,0,1,.93-.65.94.94,0,0,1,.88.5,4.86,4.86,0,0,0,1.09,1.47,1,1,0,0,1,.49.65,5.32,5.32,0,0,1,2.41-.15,6.35,6.35,0,0,0,1.92-.1,1.08,1.08,0,0,1,.64-.1c.36-.3.66-.56.89-.79,0,0,0,0,.05,0v-.34a6.34,6.34,0,0,1,.05-1,4.44,4.44,0,0,0-1.33-1.33.14.14,0,0,0-.1,0l-.35-.1a5.9,5.9,0,0,0-1.67.2,3.51,3.51,0,0,1-1.33.44h-1a3.48,3.48,0,0,1-2.16.29,1.61,1.61,0,0,1-1.13-1.47,1.86,1.86,0,0,1,.49-1.53,3.47,3.47,0,0,1,1.73-1,3.07,3.07,0,0,1,1.62-.2,4.74,4.74,0,0,0,1.38.1,2.12,2.12,0,0,1,1.27,0c.33,0,.66,0,1-.05a7.64,7.64,0,0,0,.93-.79l.3-.29a.21.21,0,0,1,.05-.15,6.37,6.37,0,0,0-.05-.83c0-.17-.07-.32-.1-.45a2,2,0,0,0-.59-.49l-1.57-.15a4.72,4.72,0,0,0-2.26.49,1.36,1.36,0,0,0-.94.94,1.6,1.6,0,0,1-.79.69,2.38,2.38,0,0,1-1.47-.15,2.13,2.13,0,0,1-1-1.53,6.06,6.06,0,0,1-.25-1.77,4.78,4.78,0,0,0-.05-1.72,1.84,1.84,0,0,1-.09-.78.81.81,0,0,0-.05-.6.6.6,0,0,1-.05-.63,1.39,1.39,0,0,0,0-.85,13.2,13.2,0,0,1-.15-2,2,2,0,0,1,.74-1.63,3,3,0,0,1,1.67-1.08,1.61,1.61,0,0,1,1.33.15,1.41,1.41,0,0,0,1.33.3,7.32,7.32,0,0,1,3.84-.16A4.31,4.31,0,0,0,298.93,94.92Zm.15-1.87a3.22,3.22,0,0,0-1.92-.15,4.94,4.94,0,0,1-2.42,0,5.86,5.86,0,0,0-2.36.24,11.79,11.79,0,0,1-1.91.6,12.12,12.12,0,0,1-1.48,0,3.65,3.65,0,0,1-2.17.29,1.61,1.61,0,0,1-1.13-1.47,1.87,1.87,0,0,1,.49-1.53,3.45,3.45,0,0,1,1.72-1,4.7,4.7,0,0,1,2.32-.24,6,6,0,0,0,1.38.15,15.43,15.43,0,0,0,1.23-1,3.79,3.79,0,0,1,.05-.73,14.31,14.31,0,0,1,.19-1.48,2.67,2.67,0,0,0-.59-.4,1.16,1.16,0,0,0-.34-.14,7,7,0,0,1-3.2-.4c-.89-.16-1.33-.41-1.33-.73,0-.6.56-1.16,1.67-1.68a9.91,9.91,0,0,1,3-.59.86.86,0,0,1,.39,0,3.69,3.69,0,0,1,.49-.49,3,3,0,0,1,.3-2,2.1,2.1,0,0,1,1.13-1.53,2,2,0,0,1,2.11.25,1.92,1.92,0,0,1,.79,1.77,8.27,8.27,0,0,1-.29,1.33.19.19,0,0,1,.1.05,6.32,6.32,0,0,0,.63.74c.5,0,1,0,1.39,0a4.78,4.78,0,0,1,2.65,0,3,3,0,0,0,1.23.3,1.9,1.9,0,0,1,1.43.49,4.78,4.78,0,0,1,1,1.57,10.52,10.52,0,0,1-.24,3.75,6,6,0,0,0,1,.88.34.34,0,0,1,.25.19h.83a2.37,2.37,0,0,1,1.63.55,1.88,1.88,0,0,1,.88,1.67c0,.56-.31,1-1,1.43a4.5,4.5,0,0,1-2.85,0,9.43,9.43,0,0,0-4-.44A7,7,0,0,1,299.08,93.05Zm.44,4.82a5.16,5.16,0,0,1-3.1-.05,2.74,2.74,0,0,0-2.12.15,6,6,0,0,1-1.92.2,1.06,1.06,0,0,0-1,1,1.6,1.6,0,0,0,0,.64.54.54,0,0,1,0,.39.47.47,0,0,0,.1.4.4.4,0,0,1,0,.34c0,.56.2.9.6,1a3.45,3.45,0,0,0,2.6-.14,4.39,4.39,0,0,1,2.66.19,1.46,1.46,0,0,0,1.53,0,3,3,0,0,1,2.12-.09,2.77,2.77,0,0,0,1.37-.49c.59-.37.9-.66.94-.89a.52.52,0,0,1,.1-.2.35.35,0,0,0,.09-.25v-.24a2.09,2.09,0,0,0-1-1.43A4.06,4.06,0,0,0,299.52,97.87Zm2.22-9.3a4.05,4.05,0,0,0,.14-1.82c0-.26-.16-.51-.59-.74a2,2,0,0,0-1.33-.2c-.62,0-1.14,0-1.57,0a2.58,2.58,0,0,0-.84.54,5.81,5.81,0,0,0-.73.55q0,.58.09,1.32l0,0a3.9,3.9,0,0,0,1.33,1.23,22.71,22.71,0,0,1,2.36-.1.36.36,0,0,1,.25,0C301.23,89.09,301.51,88.8,301.74,88.57Z"/><path class="cls-2" d="M327.67,87a1.15,1.15,0,0,1,1.67-.35,1.36,1.36,0,0,1,.44,1.67,12.36,12.36,0,0,1-2.41,4.38A10.41,10.41,0,0,0,326,94.47a13.62,13.62,0,0,1-2.17,2.41,21.05,21.05,0,0,1-2.95,2.32,5,5,0,0,0-1,.83,5.58,5.58,0,0,1-1.57,1.18,2.52,2.52,0,0,1-2.36.2c-.79-.36-1.25-.78-1.38-1.27a3.78,3.78,0,0,1,.44-2.32,2.17,2.17,0,0,1,1.58-1c.39-.3.9-.66,1.52-1.08a12.38,12.38,0,0,1,2.21-1.34,8.27,8.27,0,0,0,3.4-2.8,7.92,7.92,0,0,1,2-2.46A13.7,13.7,0,0,0,327.67,87Zm15,29.67c-.26,0-.46-.05-.59-.05a10.91,10.91,0,0,1-2.76.54,1.14,1.14,0,0,1-1.08-.64,3.6,3.6,0,0,1,1.33-2.8,4.82,4.82,0,0,1,.2-1,2,2,0,0,1-.25-.55,1.87,1.87,0,0,1-.15-.34l-.05,0a8.08,8.08,0,0,0-2.06-1,2.73,2.73,0,0,0-.79-.25,8.58,8.58,0,0,1-1,0,5.15,5.15,0,0,0-2.16.19,5.59,5.59,0,0,1-2,.45h-.78a5.7,5.7,0,0,1-.65.79l-.54.54a5.36,5.36,0,0,0,0,.59,5.24,5.24,0,0,1-.11.74,1.19,1.19,0,0,0,.06.88,9.48,9.48,0,0,1,.24,1.82,6.1,6.1,0,0,0,.34,2.81,3.52,3.52,0,0,0,3.2,1.18,3.68,3.68,0,0,1,1.68-.2,1.78,1.78,0,0,0,.83-.19,4.12,4.12,0,0,1,2.12-.79,13,13,0,0,0,2.46-.89,1.63,1.63,0,0,1,1.87.15q.35.34,0,.93a4.11,4.11,0,0,0-.54,1.09,2.06,2.06,0,0,1-.69.74,10.31,10.31,0,0,1-3.2,1.81,15.06,15.06,0,0,0-1.38.7,3.92,3.92,0,0,1-1.92.44,3.07,3.07,0,0,0-1.57,0,8.12,8.12,0,0,1-2.21.2,3.47,3.47,0,0,1-1.53-.15,2.46,2.46,0,0,0-1.18-.35,4.4,4.4,0,0,1-1.72-1.28,1.66,1.66,0,0,1-.55-1.12,2.43,2.43,0,0,0,0-1.34,2.18,2.18,0,0,1,0-1,4.6,4.6,0,0,1,.44-1.48A.86.86,0,0,0,326,117a9.82,9.82,0,0,1,.34-1.77,2.09,2.09,0,0,0,0-1.18,9.05,9.05,0,0,1-.25-3.15,8.64,8.64,0,0,0,0-1.28,2.33,2.33,0,0,1,0-.84,29.77,29.77,0,0,0,.34-4.18,8.62,8.62,0,0,0-.15-2.36,4.48,4.48,0,0,1-.15-.64,1.5,1.5,0,0,0-.2-1.08,4.68,4.68,0,0,1-.33-2.27,3.49,3.49,0,0,1,.88-2.21,1.38,1.38,0,0,1,1.33-.25,5.44,5.44,0,0,1,2-.54,4.3,4.3,0,0,1,2.12-.2,5,5,0,0,0,2-.29,4.27,4.27,0,0,1,2.06-.44,1.41,1.41,0,0,0,1-.2c.49,0,1.1,0,1.82,0l1.33-.1a1,1,0,0,1,.79.2,2.87,2.87,0,0,0,1.62-.2,5,5,0,0,1,2.16.39,7.43,7.43,0,0,1,2,1.87,3,3,0,0,1-.19,2.32,4.54,4.54,0,0,0-.3,2.26,3.67,3.67,0,0,1-.1,2,6.09,6.09,0,0,0,0,1.33,3.8,3.8,0,0,1-.05,1.52,2.64,2.64,0,0,0-.11,1.09,2.82,2.82,0,0,1-1,2.46,4.58,4.58,0,0,1-3,1.13l-.35.44c.3.27.56.51.79.74h.06a2.55,2.55,0,0,0,.53.15,2.93,2.93,0,0,0,.7-.2A5,5,0,0,1,346,111c.78,0,1.28.11,1.47.34a1.46,1.46,0,0,1-.19,1.43,4.79,4.79,0,0,1-1.14,1.43,1.08,1.08,0,0,0,.05.2,4.83,4.83,0,0,0,0,.63,10.69,10.69,0,0,0,2.07,1.24,10.55,10.55,0,0,1,2.66,1.62,5.39,5.39,0,0,0,3.64.84,4.88,4.88,0,0,1,2.95.39,3.69,3.69,0,0,1,1.87,1.52,2.74,2.74,0,0,1-.59,2.47,2.06,2.06,0,0,1-1.48.64,4.72,4.72,0,0,1-2-.2,7.38,7.38,0,0,0-2.27-.74,12.15,12.15,0,0,1-4.87-2.17c-2.3-1.7-4.05-3-5.27-3.93A.87.87,0,0,0,342.63,116.62Zm-3.44-12.79a5.31,5.31,0,0,1-2.17,0,8.41,8.41,0,0,0-1.23,0,2.1,2.1,0,0,1-1,.2,1.1,1.1,0,0,0-.79.1,1.89,1.89,0,0,1-.94.15l-1,.09a3.32,3.32,0,0,1-1.82.25c-.17.23-.31.46-.45.69a.47.47,0,0,0-.19.25v1.47a4.56,4.56,0,0,1,.74.4,9.25,9.25,0,0,1,2.06-.1,5.2,5.2,0,0,0,1.82-.1,6.06,6.06,0,0,1,2.17-.1,7.45,7.45,0,0,0,1.52,0,6.53,6.53,0,0,1,2,.25,3.32,3.32,0,0,0,1.53,0,2.41,2.41,0,0,0,1.23-1.82,11,11,0,0,0,.24-3.45,8.78,8.78,0,0,1,.1-2,2.62,2.62,0,0,0-.79-2.56.77.77,0,0,0-.93-.24,8.28,8.28,0,0,0-1.08-.15,2.91,2.91,0,0,0-1.68.2,10.83,10.83,0,0,1-3.1.49L333,98a4.4,4.4,0,0,0-1.53.29,6.43,6.43,0,0,1-1.77.69,6.45,6.45,0,0,1-.14,1.28,1.47,1.47,0,0,0,0,.69,1.38,1.38,0,0,1,.44.24,2.93,2.93,0,0,0,.25.25,2.41,2.41,0,0,1,.83,0,1.64,1.64,0,0,0,1-.1,1,1,0,0,1,.88,0,1.75,1.75,0,0,0,1-.1,2.39,2.39,0,0,1,1.08-.14,3.85,3.85,0,0,0,1.28-.15,1.6,1.6,0,0,1,.54,0,1.23,1.23,0,0,0,.79-.15,1.81,1.81,0,0,1,1,0,1.7,1.7,0,0,1,1.72.69,1.62,1.62,0,0,1,.15,1.28A1.7,1.7,0,0,1,339.19,103.83Zm-8.37-22.69a5.27,5.27,0,0,1,3-1.82,5.77,5.77,0,0,1,1.87-.4,4.48,4.48,0,0,0,1.48,0,3.86,3.86,0,0,1,2.31.24,5.13,5.13,0,0,1,2.66.94,7.77,7.77,0,0,1,2.21,2.41c.53,1.14.48,1.93-.15,2.36a1.41,1.41,0,0,1-1.52.24A5.07,5.07,0,0,1,341,83.8c-.53-.5-1.74-.73-3.65-.7a5.44,5.44,0,0,0-2.8.6,4.42,4.42,0,0,0-2.12,1.62c-.62.69-1.2.82-1.72.4a2,2,0,0,1-.84-1.83A6.63,6.63,0,0,1,330.82,81.14Zm1.62,10.28a2.07,2.07,0,0,0-.34-.44c-.23-.1-.25-.49-.05-1.18a1.65,1.65,0,0,1,.84-1,3.51,3.51,0,0,1,1.57-.29,9.46,9.46,0,0,0,2.46-.39,5.91,5.91,0,0,1,2.21.24c.46,0,.81.05,1,.05a2.13,2.13,0,0,1,1,.39c.5.4.74.76.74,1.09s-.24.7-.84,1a2.46,2.46,0,0,1-1.67.74,12.45,12.45,0,0,1-3.64.44q-.64-.09-2.46-.15C332.72,91.72,332.44,91.56,332.44,91.42Zm12.06-3.54a1.39,1.39,0,0,1,.39-1.72,1.18,1.18,0,0,1,1.68.14,4.74,4.74,0,0,0,1.37,1.09c1.41,1.21,2.36,2.08,2.86,2.6a7,7,0,0,0,2.41,2,13,13,0,0,1,2.61,1.43,13.09,13.09,0,0,0,2.26,1.23,3.3,3.3,0,0,1,2.26,1.92,2.83,2.83,0,0,1-.09,2.41q-.15.39-1.38.84a3.43,3.43,0,0,1-2.26-.1,5.7,5.7,0,0,1-2.17-1.13,5.36,5.36,0,0,0-1.43-.94,6.53,6.53,0,0,1-2.41-2.36,2.89,2.89,0,0,0-1.28-1.13,12.34,12.34,0,0,1-2.61-3A7.59,7.59,0,0,1,344.5,87.88ZM351.39,104a3.1,3.1,0,0,1,2.07-.1,1.78,1.78,0,0,1,1.08,1.14,2.84,2.84,0,0,1-.1,2.06,3.5,3.5,0,0,1-.89,1,4.47,4.47,0,0,0-.83.74,1.75,1.75,0,0,1-.54.45,2.08,2.08,0,0,0-.65.44,3.23,3.23,0,0,1-2.11,1.43c-.79.13-1.25,0-1.38-.44a1.5,1.5,0,0,1,.2-1.14,2.41,2.41,0,0,0,.64-1.37,1.71,1.71,0,0,1,.24-.55,2.17,2.17,0,0,0,.3-.79,1.34,1.34,0,0,0,.25-.44,4.55,4.55,0,0,0,.54-1.13A2.49,2.49,0,0,1,351.39,104Z"/><path class="cls-2" d="M382.2,86.4a12.2,12.2,0,0,0-3.69.3,9.22,9.22,0,0,1-2.12.39,8.61,8.61,0,0,0-1.38.25,5.94,5.94,0,0,0-2.21,1.37,3.9,3.9,0,0,0-1,1.53v.3a13.32,13.32,0,0,0-.09,3.34,6.61,6.61,0,0,1-.25,2.61,4.41,4.41,0,0,0-.24,1.63,2.26,2.26,0,0,1-.79,2,2.31,2.31,0,0,1-1.58.84,1.54,1.54,0,0,1-1-.74,3.75,3.75,0,0,1-.59-1.92c0-1.18,0-2.31,0-3.4a9.63,9.63,0,0,1,1-3.09,6.76,6.76,0,0,0,.69-3.59,8,8,0,0,1,.3-2.81,6.69,6.69,0,0,1,.83-1.43,1,1,0,0,1,.89-.39,1.18,1.18,0,0,1,1,.54.21.21,0,0,0,.05.15A2.78,2.78,0,0,1,374,83.8a2.1,2.1,0,0,0,1-.15,1.54,1.54,0,0,1,1.13-.05,6,6,0,0,0,1.39-.2,4.37,4.37,0,0,1,2-.05,3.22,3.22,0,0,0,.84.1,12.1,12.1,0,0,0,2.21-.79,4.88,4.88,0,0,1,.69-.49,4,4,0,0,1-.05-1.08,4,4,0,0,1,.64-1.58,2.75,2.75,0,0,1,1.53-.74,2.42,2.42,0,0,1,1.62.06,2.56,2.56,0,0,1,1.18.73,1.68,1.68,0,0,1,.49,1.18,1.57,1.57,0,0,0,.2.79.52.52,0,0,1,0,.54l1.09.4c.45.16,1.12.36,2,.59-.23-.07-.29-.08-.2,0a.92.92,0,0,1,.2,0h0c1.08,0,2.21,0,3.4,0a8.37,8.37,0,0,1,3.15.24,1.82,1.82,0,0,0,1.62,0,7.32,7.32,0,0,1,2.51,0,5,5,0,0,1,2.56,1.63,3.43,3.43,0,0,1,1.38,2.16c.09.43.31,1.18.64,2.27a13,13,0,0,1,.44,3.09,10.66,10.66,0,0,1-.25,2.76,3,3,0,0,0-.39,1.23,1.46,1.46,0,0,1-.93,1.08,1.56,1.56,0,0,1-1.38.25,1.48,1.48,0,0,1-1-1.23,9.51,9.51,0,0,1-.44-2.66,4.12,4.12,0,0,0,.3-1.48,6.43,6.43,0,0,1,0-1.47,4.18,4.18,0,0,0-.5-2,5.41,5.41,0,0,0-1.23-1.43,4.39,4.39,0,0,0-1.72-.69,2.19,2.19,0,0,1-1.28-.34,3.64,3.64,0,0,0-2.36-.25,3,3,0,0,1-1.48,0,6.06,6.06,0,0,0-1.08-.15,9.09,9.09,0,0,1-2.66,0,17.81,17.81,0,0,0-4.62.1A16.83,16.83,0,0,1,382.2,86.4Zm-2.36,26.82a1.76,1.76,0,0,1,1.18.2,1.22,1.22,0,0,1,.74.64,1.08,1.08,0,0,1-.05.84,1.85,1.85,0,0,1-.79.78,8.36,8.36,0,0,1-2.51,1.53,10.25,10.25,0,0,0-1.72,1.13,9.71,9.71,0,0,1-2.56,1.63,14.91,14.91,0,0,1-3.35.83,3.28,3.28,0,0,1-1.87-.14,1.18,1.18,0,0,1-.83-.74,2.39,2.39,0,0,1,1-2.81,8.82,8.82,0,0,1,3.15-1.13,6.92,6.92,0,0,0,1.38-.39,12.17,12.17,0,0,1,2.21-.74,4.54,4.54,0,0,0,1.48-.54A5.22,5.22,0,0,1,379.84,113.22Zm-1.33-6.69a3.48,3.48,0,0,1,1.13.25,1.18,1.18,0,0,1,.64.64.94.94,0,0,1,0,.79,2.45,2.45,0,0,1-.74.73,9,9,0,0,1-1.72,1,12.44,12.44,0,0,0-1.13.78,5.15,5.15,0,0,1-1.68,1.09,16.41,16.41,0,0,1-3.15.73,3.94,3.94,0,0,1-1.77-.19c-.49-.17-.75-.41-.78-.74a1.93,1.93,0,0,1,.05-1.43,2.3,2.3,0,0,1,1-1.18,7.17,7.17,0,0,1,3-1c.23,0,.49,0,.79-.05a4.42,4.42,0,0,1,1.18-.25,2,2,0,0,0,.79-.15A5.6,5.6,0,0,1,378.51,106.53ZM392.88,89.9a10.75,10.75,0,0,0,1.77,0,2.35,2.35,0,0,1,1.62.55,1.87,1.87,0,0,1,.89,1.67c0,.56-.31,1-1,1.43a4.53,4.53,0,0,1-2.86,0,5,5,0,0,0-1.23-.2,5.73,5.73,0,0,0-1.33.45,4.84,4.84,0,0,1-.54.83A6,6,0,0,1,389,95.71c0,.26-.07.51-.1.73a2.35,2.35,0,0,0,0,.5.11.11,0,0,1,.09,0c.26.32.56.7.89,1.13a2.17,2.17,0,0,0,.69,1,5.77,5.77,0,0,0,1.48,1.38,11.73,11.73,0,0,1,1.23,2.66,2.72,2.72,0,0,0,.29.73,1.21,1.21,0,0,1,.25.54.62.62,0,0,1,.24.35c0,.16.22.36.54.59a2,2,0,0,1,.65,1c.06.17.3.37.73.59a.83.83,0,0,1,.5.6,2.34,2.34,0,0,0,.88.83c.56.43,1.13.86,1.72,1.28s1.05.64,1.67,1,1.05.65,1.48.88a5.83,5.83,0,0,0,1.28.59,5.16,5.16,0,0,1,2.07.54,1.74,1.74,0,0,0,1,.4,4.2,4.2,0,0,1,2.86.93c.52.23.8.51.83.84a1.64,1.64,0,0,0,.44.74,1.64,1.64,0,0,1,0,1.42,2.39,2.39,0,0,1-2,1.63,4.44,4.44,0,0,1-2.32-.5,2.76,2.76,0,0,0-1.37-.29,8.62,8.62,0,0,1-3.59-2.26,4.26,4.26,0,0,0-1.63-1.09,5.38,5.38,0,0,1-2.22-2.21,2.19,2.19,0,0,0-1.07-.74,2.09,2.09,0,0,0-.5-.25,4.42,4.42,0,0,0-.89.25,12.39,12.39,0,0,1-.14,2.46,5,5,0,0,1-.79,2.41A8.93,8.93,0,0,0,393,119a3.31,3.31,0,0,1-.45,1.53,8,8,0,0,0-.74,1.52,1.68,1.68,0,0,1-1,1.23,4.34,4.34,0,0,1-2.31.79,4.9,4.9,0,0,1-2.27-.14,2.88,2.88,0,0,0-1.52-.65,1.33,1.33,0,0,1-1.18-.58,3.63,3.63,0,0,0-1.77-1.68c-.89-.52-1.35-1-1.38-1.43a2.7,2.7,0,0,1,.24-1.92,2.48,2.48,0,0,1,1.39-.54,7.28,7.28,0,0,1,1.86,1.14,5.92,5.92,0,0,0,2,1.07,4.93,4.93,0,0,0,2,.16,1.33,1.33,0,0,1,.69-.4c.23,0,.7-.49,1.42-1.48a5.75,5.75,0,0,0,1-2.16,1.66,1.66,0,0,1,.25-1.18,1.28,1.28,0,0,0,0-1c.1-.42.19-1,.29-1.57a11.78,11.78,0,0,1-.05-2,6.27,6.27,0,0,0-.19-1.87,8.74,8.74,0,0,1-.6-2,5.86,5.86,0,0,0-.44-1.18,1.76,1.76,0,0,1-.3-.79,5.74,5.74,0,0,0-.53-1.62,5.81,5.81,0,0,0-1.14-1.13,8.19,8.19,0,0,1-1.42-1,.82.82,0,0,0-.64-.44l-.3,0c-.43,0-.8,0-1.13,0l-.89.1a10.35,10.35,0,0,1-.88.59,6.18,6.18,0,0,0-1.48.83,5.81,5.81,0,0,1-1.72,1,6.49,6.49,0,0,0-1.82.84,2.88,2.88,0,0,1-2.17.54,2.42,2.42,0,0,1-1.62-1,2.06,2.06,0,0,1,.25-1.73A2,2,0,0,1,376,99.69c1.05-.36,1.94-.71,2.66-1a6.39,6.39,0,0,1,2.12-.89,10,10,0,0,0,2.21-1A8.81,8.81,0,0,0,385,94.72c.23-.26.46-.51.7-.74a1.23,1.23,0,0,0-.35-.15,3.91,3.91,0,0,0-.49-.2,2.88,2.88,0,0,1-.59,0,5,5,0,0,0-1.87.29,3.54,3.54,0,0,1-1.48.54,8.07,8.07,0,0,1-1.18.11,3.63,3.63,0,0,1-2.16.29,1.62,1.62,0,0,1-1.14-1.48,1.86,1.86,0,0,1,.49-1.52,3.45,3.45,0,0,1,1.72-1,3.31,3.31,0,0,1,1.83-.29,4.15,4.15,0,0,0,1.57,0,2.23,2.23,0,0,1,1.38,0,2.32,2.32,0,0,0,1.38-.3,3.46,3.46,0,0,1,1.87-.15l2.17-.24A19.44,19.44,0,0,1,392.88,89.9Zm-6.6,12.89a1.46,1.46,0,0,1,0,1.33,5.36,5.36,0,0,1-1.32,1.52,1.39,1.39,0,0,1-.89.45.84.84,0,0,0-.44.24,2.28,2.28,0,0,1-1.53.7,1.3,1.3,0,0,1-1.08-.45.9.9,0,0,1-.05-1,6,6,0,0,1,1-1.48c.46-.4.91-.75,1.34-1.08a3.69,3.69,0,0,1,1.76-.69A1.19,1.19,0,0,1,386.28,102.79ZM389,108.1a1.38,1.38,0,0,1,0,1.34,4.6,4.6,0,0,1-1.28,1.52,5.15,5.15,0,0,1-1.82,1.23,1.91,1.91,0,0,0-.89.64,2.29,2.29,0,0,1-1.52.74,1.58,1.58,0,0,1-1.08-.4,1.09,1.09,0,0,1-.1-1,4.17,4.17,0,0,1,.89-1.47,23.26,23.26,0,0,1,2-1.78,5.88,5.88,0,0,1,2.51-1.23A1.28,1.28,0,0,1,389,108.1Zm12-10.13a2.65,2.65,0,0,1,1.92.44,1.54,1.54,0,0,1,.69,1.28,2.93,2.93,0,0,1-.59,1.87,4.52,4.52,0,0,1-1.23,1,2.75,2.75,0,0,0-1,.68,1.15,1.15,0,0,1-.73.35,2.14,2.14,0,0,0-.84.44,4.29,4.29,0,0,1-2.76.88c-.85-.09-1.29-.39-1.33-.88a1.51,1.51,0,0,1,.55-1.18c.72-.56,1.09-1,1.13-1.28a1.61,1.61,0,0,1,.54-.49,1.9,1.9,0,0,0,.69-.79,3.49,3.49,0,0,0,.49-.39,4.26,4.26,0,0,0,1.08-1A3.3,3.3,0,0,1,401.05,98Z"/><rect class="cls-1" x="78.8" y="76.44" width="29.78" height="12.43"/></svg>